<mxfile host="65bd71144e">
    <diagram id="RaAsrEIMrkPcarFL4yHp" name="PÃ¡gina-1">
        <mxGraphModel dx="986" dy="814" grid="1" gridSize="10" guides="1" tooltips="1" connect="1" arrows="1" fold="1" page="1" pageScale="1" pageWidth="1169" pageHeight="827" math="0" shadow="0">
            <root>
                <mxCell id="0"/>
                <mxCell id="1" parent="0"/>
                <mxCell id="39" value="" style="rounded=1;whiteSpace=wrap;html=1;fillColor=none;strokeWidth=3;" vertex="1" parent="1">
                    <mxGeometry x="105.5" y="120" width="200" height="400" as="geometry"/>
                </mxCell>
                <mxCell id="5" value="" style="rounded=1;whiteSpace=wrap;html=1;fillColor=none;strokeWidth=3;" vertex="1" parent="1">
                    <mxGeometry x="400" y="120" width="480" height="250" as="geometry"/>
                </mxCell>
                <mxCell id="32" style="edgeStyle=none;html=1;exitX=0.75;exitY=1;exitDx=0;exitDy=0;strokeWidth=2;" edge="1" parent="1" source="12">
                    <mxGeometry relative="1" as="geometry">
                        <mxPoint x="220" y="400" as="targetPoint"/>
                    </mxGeometry>
                </mxCell>
                <mxCell id="12" value="Desktop and Mobile" style="strokeColor=none;shadow=1;strokeWidth=1;rounded=1;absoluteArcSize=1;arcSize=2;labelPosition=center;verticalLabelPosition=middle;align=center;verticalAlign=bottom;spacingLeft=0;fontColor=#FFFFFF;fontSize=12;whiteSpace=wrap;spacingBottom=2;fillColor=none;" vertex="1" parent="1">
                    <mxGeometry x="160" y="185.02" width="80" height="115" as="geometry"/>
                </mxCell>
                <mxCell id="13" value="" style="sketch=0;dashed=0;connectable=0;html=1;fillColor=#757575;strokeColor=none;shape=mxgraph.gcp2.desktop_and_mobile;part=1;" vertex="1" parent="12">
                    <mxGeometry x="0.5" width="50" height="33" relative="1" as="geometry">
                        <mxPoint x="-25" y="18.5" as="offset"/>
                    </mxGeometry>
                </mxCell>
                <mxCell id="21" style="edgeStyle=none;html=1;strokeWidth=2;" edge="1" parent="1">
                    <mxGeometry relative="1" as="geometry">
                        <mxPoint x="720" y="250" as="sourcePoint"/>
                        <mxPoint x="540" y="250" as="targetPoint"/>
                    </mxGeometry>
                </mxCell>
                <mxCell id="22" style="edgeStyle=none;html=1;strokeWidth=2;" edge="1" parent="1">
                    <mxGeometry relative="1" as="geometry">
                        <mxPoint x="540" y="220" as="sourcePoint"/>
                        <mxPoint x="720" y="220" as="targetPoint"/>
                    </mxGeometry>
                </mxCell>
                <mxCell id="23" value="" style="shape=image;verticalLabelPosition=bottom;labelBackgroundColor=default;verticalAlign=top;aspect=fixed;imageAspect=0;image=data:image/webp,UklGRuBuAABXRUJQVlA4TNRuAAAv/8liEFWPw0aSIqc6/7AB85wDiIgJ0Ov6JBz7pvkBWRljhzPQmV/NexRNoaCMBYVKClEKKzOLUtlOptHS2NS42JwZ+yU6gBZIp9SkSe0UVgVBN47PFEL2z7ToRg524ygNDyu30F9Fb/JVtW27FG1br+QTvbRUz3Mqjw3fOtzhtwTfInwr2rZznsd5nNecT1V1vwfP87yvIBQGIgYTptCJGEk1QmEmGBTyZoYm5qaCiUbvn9AUiGBiYKKB0GWgYOYKCEbGZqYGQgdOqKjAUAwEw84rMBKEKRiWudiJgdBvZAembSSCIjS1DGKn9gI08tmZQYOJgbmBBj+ZxiZms6MCIwPjggaFDgxKXIRXQToxqMQFcAEqqM6MhAKjnzUwsBLBwEChoQI7MjHVoOSIXAKvDqUxMiioygTprJPKGuRDhE6qMSuMDDSTNjMw0DUwMOjAoPOGjoyMTMXAQBraSBfARIyECV2J8JrpW5IkS5Ik2+L/f6mvqL/oS/6PPxl43kwZWcG3JEmWJEm2xQDKyBIVUFZ9ec7v6w/sL6SA/f/aJno67A8Jkqa4Z8s4irsGd9q77rrgkkmGe9DgOb8rVtyd4Fq0F7o7vNworrP2lk66Ubls4T+SmwDM1/8d1yWn/qeMnHP2vc+p2LZtO3vVeX7P27btd7+n4+Y5+37OG4/qf4qqznnfvX/3777X2mvt9RvF9n/wVtTWLOYd1Wp3T2O7Edu2nersrLVjW233KHYyS2Zsd1w9i9V8ohMnbc40ihqFYMc2dmw+sT1y4/TqGsUZ28bINke2bZtnVWNUaz0xZrbZ7r0y62G/cTK1tcdxRhpV7DbONNbQf4Fq3KvnwTRD2zkpxX5XRrZt207aNs+ojQxt25jxrbAs27atupEU+U3stN7d54UylMNjJDNTtZiZGaSrZGaQ7rl6Ucz2u+voRTG5eq5+fQS2gtZt28rbRulv8lNZY6jjO/t8Vjh5K7OGdPb5VMYvZWZmBuvKZWZmZmYm6Z6rtn6kQNu2aUfqOB+xbdt2yhXrp2PbNsq2bduxbds2vvHOBNB/9H+wuA1+POdtXP5WjZaZZcQXbhFfRIsahcLjmvDyKFrye+FRJjyahEef8Jg8XOGxGi15Kyc8iMIDn8vlcsJj5XCFR0/Uo0XUKBc1fxE1XgiPq6JGgSgRKzx8IsPCvmFZaESHGU9GOqvxiw5fZAhjUcJ/vsLjgfD4K0oMCi/7wgOSU3gQIrUMC89VUY/nkV0UnUp0U0xX983fhDLEafzuQji6zY6iltSRRGppiNSy5qem8NgVHu3C40l0O88QHoejw0w6k5u+hGdPUcv5vPBY9lP/VyK11IgSF0XNuAZDKHZ0ucOUcU2DtzqckVqshUeOqOWr8FjyMRUe29Ey//dDb9/43d8wGdOs6tBBRX1uG91GcbfCg+RjLDxowqMt4ovLkV1xWvWfdLgyn1mBqJH2VsKD7GMuPKjCo26+ohSzBvsOa+Yya/jKL+jPi3i5L0rM+irMRbfz1/dzFJnIdDwEf3Qbgb0swlfnU0R2pUJ4JDX2mVRmMeKdIvCJNTPxVSs8EOHR+DeR4X+JTGGWfD/C47soQfHVLDwYwqM2us0xO5L5S68T+9S2vsrH9OdRj2N3l9FLx5u/xM4pWmLcV/8jRT1faLQNpUxdYl/dwXyY0W3+NhOfhrN7q+g2u99dBi6ru/mHO1oiQXiM+pQUHos9NBj+Fc2w5ZojNa4Ljz2fmmOKlvw4uplpZdASLXO9TxUedJ+kpxLZFadeM2O5Z+Hxw6fr9s94LYcOS8YrvUY3cxfh0eXTVngeEiX87y6zlTEKj06fvsJjIlJLSJvMVRruytED92kcqWU4UhdevWamInZhdBg+nSO19F9fBioRzwqRWt7Nzie18Ki+hwxT9siKEhSf2h8wkufOIKV2xtvjU3wR0ZLPNhj+xGaKckPCo9mnuvCYv76MUL7oU2fnE/7mG/iabMYnvUZqCRElNn3aL0J4zl3L4RP2zE5W/lY+/UWNgYYeJhmc3F205Pwx+Tq446LkS0vO1GQFP+3r4uE2em/ukJFJm0hdZI3J18fZndC/ZF4ialH+ZV8v5x3ZZf1MS2bc1tfNmfTQJpOSZQqPt76OCi/1C8mc5HmuwddT4bExzwxJet2hmfi6OruXX5W/d9gyIVmm8Pjs6+yNLCTzkcblb9Wf8/X2hLYi0xFRw28Rvu7OJLKL5IxGeu1hdr4GH+eSMxc5TOH5p6/HF7iQTEUeeOy+Ln/cDWUmcs9n4utzV6IU10xE8s/m6/Tsesg85LE/wNfs1cudcMD1Mwuptb5uN3prDTbpnwcOACS4I49mEnJ3wuOpr9u5jfj/RgAIFiDNbRaSOcjqPvslRy++buey1loLEHH2npopyKXX+Lqdy9rOBng2M5AFX6Cv27ms7XyAl7foig5TBiAL3n5ft3NZ27KA3anL+GPB2+/rdi5rWx6a3a3L8GPB2+/rdi5rW9UJ3o+da5kz+viisfu63fiNNdjI/2wC2+qA364zZc8lBpEYxXsJBatHwb9vpNjo/HxrZby86KZbz0u2uGHW6lboTXyBfPg/JVVe0WuZF+jrdi5rq9LFrhmuQkm1gBwpdKi1Uqy6XsxhoZLQ94Iywf92jxS8FHrNMnuErq1o8TPYmjR8Ja4l74av27msrVrA80zVc4nBkiMsu2+FrrRsJwXPBV8YrKBU2N+XLPcWpgfk3/VeUetHvt7X7VzWVvU4DJQlqW3R/qJbbtmujmMlBbLgjGgXjA1IwCtkjUB4fPd1O5e1Vd6NC8PMUlnLNk7UXqGvBBorLVCE3rLcWyqqyz+SuFe+6uhyh2m3fN1u/Poa3I+txj12RzobI3dB+grbILZHgq+MoqBYbKKY1Bfyd/1XuIqW+Ulft3NZW60AiS5uZoRc+4QeE/qZMfUJ7lrb+S/kr+avYBX1HOHrdi5rqxngepPfmpLxcVnP+26bIML4CnTL9kQoV+h3Gr9C1RiFB123cllb7YBPuL8eCZmdnaIOxDHWPlGu/P8rqfEKVA2H/wwW4Wt2LmuTEGBdbGo5zU20hcWC14x7pJgdluj0SlNXKzzmfM2exf3YpHSbva4zNFYd9CCGNTjV6n3vDuQTGwnS2i4JNuUOfszX7FzWJqnbLNvEuMVqFTxkXQoKQgvkwwP11GCQwlYHl9JrxMsrX7NzWZusABkuPG5cAvLveoJlggDrVNh/wn6/8wpRW+5rdi5rkxfgXif7RsOsdLXYz4Io63aAtW+zJb9NXglqK3Zcs3JZm8wAR2MTeQ1KnsU2xrGOBRUCZ4H8Nn3Fp76Ex7qv17O4H5vcTviPOlPy4ifokUjW9QCx/vIf8t86r+x0Bz/t63Uua5MdYJYZ+cePVBXtbEEJ61xQaLlmJr2Sk/D80NfrXNYmPUCay9DKhFi94RdY94I3wsa+clPEI8DX61zWpqATvtyvXw1EjUdAjnzARrCFyE/LV2hqMITir+hVLmtT0m1W2fTiNhaz8U/5U/O1GDaGgphgUdIrMf39BfpaPYv7sSkKeJ7RGGvZ3rJxFOWz0vsVmITHVV+rc1mbqnvsjm5iLgoldS3bVg8bSU+VkFdamqfwQLQql7Wpe/axaYA1FWKzzWejOSQg6/DKSg1KEXwkX6dzWZvKh2ImsqqwARXAUHfQvLDCT7AiB+SnlSVHTJmyovAT7LnEEGTinH2dzmVtau+dibBUd8EHNqaCv44FmfunpLolR1ihLNvk5lWs7YVka/uPIFtQ6mNbL84X9W646M5X8Vv7Jo49FrQh6vG/r9O5rE1xt9kqBEWMg5kaw0ZVEBLrqKBvIS9E17ZW/XFdd0Elg4y7Ktj3q2U/I+4EUWhU/hI/E1I8hfCY/7Gb3+bIrtz+umjJ2Q8T9XlK1HPkbGbzBw/zdWe1szd/I9fQFpFZ3I9NeYDvTEMpoRIbWE+oNyjbdbHRVQT3chm8QH6QOjYq6IHw/NOnYc+/HPV4vuXHt2xRFiJcxdFhxtNoO9fNixppkV25fVc3jkAuaxF0YuxmFtIE+Wxsk+8EUbPk2lhrjtCLkayuINrhT+ub1kELRM04X/1dRXal4uuO7/NjX93BzMnYl6jl+B8Ljz/CYyelclmLIQSXyn55OJ9JiI1hoyvwPw56FmE9b7xlDvZh9bsLNqX/40eq4nOsq9TCT7B/mTtmyRFSJxkG8U4R2B7FtT3UHXrLu+Okro1uZlqf+OfRkrdSpdFba5C1OP6mOQiZwwY4Y0LQMpEYLTPtQQZjOU7U0XQvMp1YqsWt+pe5iSx1pmG4Yl/lwmPkrEb8I5ySbR5FlCg58NmlQC5rkQSINLnUOJqCUsPZEPvGBB2LmCxwZzOufVpXCAIQ3WbH2akrUkt/pC7yVs4pHdnMZB77l2eXZLPYyP9sAosm4OP9u9igzID1XVtReWyUfyuUVAsalnbpImMseBqbFcjv76Mlxn1FixKzkVpOrIARXIjwyBEeY8mUy1pEAS8yArsi2Thb7m4+nyBBv6KtLZ/CaFu2ImE/7QjUdze+kmdyyy9Wy0h2dLnDJLxY7X9XyZLLWkwBEpv87kg5A/DQ2pazkW5UIB8exOvUJYHCqHtapAXe62sRKtoeUaPwuRnVo9ghUWI2KXJZiytgX/Qv1cPG+sL1IFzeCVMZf4EuuPwCvQLrCS8ffPXe9mzugNG9u2jJ3hOovlzWYnvmuhfKhrv7saBaXrHR1vYFa7LzzkB5I/aVKzy651DLOI94ktWUy1p05zWgX4849G4UYxyZ0rHyy06cfxEfFnwKSECQLO9ZQRZr1NreKXjWLvBdm/NWzfbne2W8336S1TGL+7EIQ2OGzpliczCm5edZa9cS6zFlbO/CTzCy1R0tjvZWb4zljg3dVvkiGtmWbRwFxZqwm/UqgAJndGC7yG4R7qv1cIWHTy3j/mLzrrJc1mIMcNtlKKBvpvXYxkj6d1tr/0Ar1BSSXuhvWljcaKuuEXZFEETAJ7ZJFATrheg6lfUbZ22XJAWqu/SPU0pX0W0U3wGjXztj4bFSNbmsxfn5tM0U7GQMBVojwQ8jpxDg0paZJuZwebU8YqZS0KsTl3ys5UPFA9P14Cv0A65HlIUIK3GZZzWTKshlLdIAKU32IwVN+0cSd4nVF5R+uDWaFGw8c6pPGc9qCnIVvmQA69qTnxBo7qS7UshfiLqwY2U2rP/q/HIr5bIW7ffWM+9vrHqk4NDIcFK20Dcmyx3TIVsJv+jSKciVhT4dWefzzwaWi/r8jq/MMf3xj7BC20RLJPxKy+WyFm+AiNPGpjrmXcxq+zpMiCLF7/wq9Bk8/0AKajWpio81/2FYoLg3FyUoyhAlWhsORYUVe9HdtswsNvLfm8Fi7oT/0zD3W6x0+dBjhOLjVvGw/KLmUlCrSvNZ/0LfF6wegeF2y1ek8KB/3Y+wcnv9mzF1Ti5rcZ+fdpmtWOVOs/7xI1UJzbLNBbmQZlIQq0JJrTZ+NoIua8u7A7012obSTBQhPKYa1mLBSt6n7e+MXNYi/7va9S0rLLhuXYcQroWSahW7gxHKURCr97qzUZz6z7/SILDbNvtqjNTy6TBZ0as6dFD77/t+LmvRn59m1WB1760nfL3W88Z3hGHVFRS0ylvHxcZRWE7B6hy47fOFB10JM9mhXlndr3iRuazFH2CZXomZ4FFm+HHC2Ss2ejqA0xS0qquwG2woc1cHahNeHvkqFB4rE2OlL3v1lzu1bNy/9iYqwLrj0EKnhsWwon3mEt5Zy3Nk/UxBq9JE5bHR7OEOvNbgh/9LjlcFT/BErPrYNMDetwIg+FOjCp18IwizmjFVwgj1spcEupTWFLSqVzwbTzGXsgKtRUu+4itweYfJ6l8WNL+JXzcwmqY2lRV8ZDUFt2cQ+kIHXJAg+JWCVCWJ2c2GdGHZQGodD8HfVgHXMwImoYtldoOddcIf61LS96zkhgMmabBQUu20y179KEhVWAc2qPV6B06L7KLIx/+cmIq7NyfsAFKd346lNEnMFlZy+zHS5MZD9qlCQaqO3WLVy31tbY9btj9mzk3/u+CbxEK/03hKEf+RxBHRFOufNGv8d8H3WUTN+PkXgVsQVInnrwmM9vePhJ7wQD6Y6QhhOIA05KyDn9OjyayiQK1hkjajPvPYQcwOM0jVmfmscO7wBpOLTyHJXWta21m/dFeF2wVkHQKhCS9BPvbCgx4t81CmpLOnz8UiB3An9pcRtw5ViFdB6PvHpNWVAtmmPV4KSnX8Iquas8ByzXtcKKlGYKP39VikBLezHh0Dn0VL7sDuKYRnT6alE2M3gBTcrBOM16Cw7qzgozDSrCW/TazqsaGVl4JS3c1lNTudFtXTTeB7p97zweP7fQOb3bOP/Ae8HFPzygDScQM4VKc/bzF8n1CO9JvUuqje8lJQKut5yTGsoED/OlXkpyWpWmqmwAuO7/cNZHbOqbEGb/0Ma/PCx7AeqxdhQ7/6AGzs5+6ETj5+HfTzgxfDgN53OgzikRNgMA8cDUO8hzDku4fwNUO/ZT9oeuv+8DVfM4R7Hb7wCwf26Mkw4CdOhX6//0KIffIG2KgvTmADv/kYrOv6NVjrFz+BNXrzB4iWObSU8ECElzCmpxNNNG62ySW31Z65DF8Q3UdanhX/ctb2dBIFpTqczfCnh1pyBKm992NBGBh32RGoTJSFyFMkV7RkWPNXvoLpbvQXJtDPD14Cg3roOBj6LfvDcOYbQQpQvc37ZWh66wEwiEdOhLIPXwYb+aUprMfqJVizV7+GeWyZiJd0puir4fY4uhOQI2vDu7KXNL1zf5EEp9wUlMpyx3gYum/wTZPUDxt4ARZ3HxKY7GH8pG20ncE6PPMubNhX7oN+feAiGPx9DQzrwhYIk/l9vuZuY5+4sWkTPnNrRKV1WUnCAC+jBpDWzzYU1xu34DGDbxqQ30ak7R1C37/Esp39x49UpaBUb/gY+LhVIj8tCUnzbD9QPDwz8Fiv0RLjybGGb/0I6/vdpwE+ciVs83DPb4AwNaVAlEJzotcbnuAr5z0RerQG7BtmFpoX6M0RBt9zEmm87FXmweEUlGpkDMMutzyMMK00HBK3SAo09vZ+9Xe8+QvWPb8MTT52DXxNwhTCFJeGSWm45wleldblpQXHpgEWYD9mAGda64wl1yYX3OAQ0nqCUElwOYqCUr3gZ2A8gxYEf80kbC2bPQXQN4XexAcaEx5vqmstXv4SNu6zd8Dg7xtDs/N9CHGUAk0KjVJS2Mz6mpTgsmOXBbiOmL1YjfFa7D5DXxdOmg9IQAgFpUoTRBhyRmgYIRyyPA5Kub4UWOwoxlQt/9zJx6+F8tsPgRBXKYxI6ekWs8qADjw/gBTEAD7RmF8Z+skQCnxvco4JZAbs+60UIX1nE4wu1SjQ2Cv6Vb9WL34Gm/ypG+EYQoylYSph9QWvE2MqMDSmIAb4fmwaYLVlhkCB9iSKglOIEOVjwE1foBchflfgB9CnKwUe67aqVv/tX2BjPn83fE2It5ekXyYkyXlPgAZ1gH3Dy0JjoLYIvcjA54VQcApuUS6GK4imugn1gPy73mJp1adQ4LHoMJP+gKr55/68/3y4jBB3KVCk8N6TOjW9ezsLATg2jQUBLuLlNqvUlXQG3uT5BKFgFQROhvv9MUL/PUFYTr3SFIhMeM71q3B13/0DNuqLCSpuOxBCFcqEaSnJHe6Nwq8+hjC7OaE1JyfGEnqS1BHY8AgKVuEAg7W25WVM0uCU8zK6n6DAZGNvtfe9v2EutkGoSingFy9ntbLy2IGn0LIOTNSTHxn2kDwKVuFMLpjKe0mP4ZbZbr8LJSkwWcOhqPiteqPTat4vQ6jSokx443Wir7rY1LIC7EQLmtdryT//SoMNsOYfo2AV8lIY6odZpE3LHSuAdmoaTYHKtrwV1vb5D2Ggj7UQqlcKlV6q7NXG/Tge6gCkYjWnHnVkNoOuvZGCVTCt7QUGmnuAdGrR/uXs0qlAPpwCl312S63dcx/AwB47CfY0VLIUymWCkdL46LCygCVoyI4YUL59FLxCfQa69BTpNSBHVreD4MEkClzW+N25nN+Sa/rat7D8hNUQKvucWswqHZU9KMAhrADWaYi1jjDoHyl4hTMuIE2tf9KMdFvqlk0LIyiQ2Q513vmPs3m/DKHKpUCXhife+VpGXeyOIxuACFJzgqCIdowQVIJaYAavEJCAjgxzcCbpVyTG4TZY1RNGgc12o7Mab/6Bex7WhS0Qql4KZC/hxDBu6qOVxe+NlAUYrB3dGHL3BApeYRDDbOYlHSdcLartWRTYbEdm0hnrll+B+G0HQ0hBKZlP9BqorH7+eiQJkICU2/heNzb6IQli1Sh4hZsCDcYo0vSkTkXRwUWBzoSHj+/7/pq8/h18REhFKf0pZ8vyimIneAIpgLuDfPUQNs3YxJAtk0bBKyQsZZC7SNvLDr5Mt3AKfLb/vu9vxJdXYQIhHaVA8lJVVGldTjX1/d042SaX3FYvdmRDep2CWajCIJuTxqctLYKoE0kU+KxWeKz4a/3ipwvltx2yHNJSCkPNrTZUEn8VUhA8rxdVGHC5O8EspAm+gviZtP5CZt7AzF8lUSC06DCTbrSdnx7KHYNrlxJSs5iwurjTK5fYVLQsgGM4ARyZj04UfoJdhFTwfRYKXuEfSdxVhphPmh/p4zleCoyWuGG9tBSqQ4pKofcoFcQuFoSThWB7k6CKRixhwGITKZiFGgzxF1N3NLOBSYHRupbCVkjTF/JSlfVK6lkWwFGcLEAiBJPqdCFKIAOKDMhvo2AWSgkiECz2ZzgZ9MBOldbFyoSXIV0/qdmiElYObxdS1gL8HvvjEcKaIDaaAVvuWApmoRUDPDiFgqQkUq3mJekPKSslC817tVBObGpZzx4rC3DBHYcWeiD0FqCfzGAWqmUDEIS6UpCUpUqBENK2eKNbdG4dk2J4VmhZgLSXqNOAGQINjn8nBbNwkuX7blJQlKZ3b2eXhgchfaXka+KGvXgU08+fHcD11mhZC2FfYxN56XeN4X5JwSxY/AxmgEsoKIqc90QSpg0hhb0kwytXC7uNNxCzAIfLjgeK1EuaDyd3RzALpiALwCfeoCjNrdaVCTMhjaWwJyWH1fINABmIWYCbTfZuTzyxWhmu9bzfKJgFsdlY/tIC+XAKgpLoa/elhFTea2kIUgo7+B/MLECq2xhBuy/hZPzzrzQIbqGfPM9KCoLyZFJghISWwrWpqcRl5Imate5ol1oTziWIwFlFwSzcZfmDKOjJ1G42pLXXybu2ComdtewAN3CzgH+6d7pZNjuDzVgW3ILgnryDWUFPFimF9yG1pVA17CPlVgdD2D3krNus8s3J9h2cDyiYhWEs3bOegpwM+0g5xhTSWwodct4TUIczmSV2FmDHhREt8yIY347gFm7Iq0VBTpotKowUykOKS6G70rqCyqgDbBI7O4VPp1lPBtuNAi0X+sZkyRF709LS0jZOiTb/RSEgR3qkCQoLP8GCnGzebDe+hGlLSHMp9E5WFQzB0+jZdzowku2BY4VyjoTsHSYmNVSw87sb/bqnpNy3bEUpKRPPb/9K4Dzd62ihN/HhRidh49ky/2qtIy0sdn/i9MjIuIzISEH+oqsnHw2a2XNzgXy4gXFb37UVG33knRsHBcUeLkpPuaaCc6tEl54W5ahE9e1RY9Wje426C4KRRZ6/u0mLX0InDyttTJqx9K0U1ORPpdAWUt1LMtz8wkZxVRwTfvYIm/zuSDmCmdb2XzCdyOk5dJbFfn5d8NHHdhfA3d1+tljSCUPirdZLsOnGUpbYbmqbgWfCDUdAjkwUtbeftS1n+7u+qPJmgXy4g5GQXmfdomy2f9zwd6yVUs00GAmCqDRBJgU1GZ4UmkO6S2HUO78soYjWJ4qfBThdduyy9KrAYM85NZKKW1v+k/sMsr21vfDrKdNIhI+12Lp7GxhkfJN/Lfj3jcw0DMsSNz1jgJ6r9as5CmF3q1zwMEShnxdY21mWHGEkUlm230Ifp07ymQk1PvhqXiPBp8jIOOYNkYLSeue3P/rXMmc3Zjl5wjY+FMoJnA+mdkyJLPLSytsffTAwfYfXEA3jpj7aS1ITUj7R6/hk1cDbqQB79p9OLsu9pWDi85wXJz56EsegBcViE3uVNQbT/uxwkUELvljVU3+vAZiypJGH4Xb8saTxK2WtOUKlGIbc/duNhmGitG7krLHkt4nYbJ89SRHobHfPlQXX9t1xygQkoGb9TYs8bG+B0mTQ1qFGp60UqkPaS6G10rpYNTgxdlOBBdj/mtT6HcxX5KQcWv+8nxXM/r1GKd1NWdLIzyp2H/VYa0NShzP07AUWP4MNXd6fCz0Mv97paYZgPcsWwIAc6ZTZYbljuwj8DLL6o9XHnCrm36F/5bL86ZfeKPwEMzCvJCUfQ+p/0ncpITYNsAApKrAAW/qmVVgMmHSnRJ61Mhb6WVnB1+1bM/U1yTJpX/tZ3VtCuVK62rktl5UU+qxXuD3EpMYCDNOeeXRbPCvq+2SCV3+1pF0ip4t7ZYPRDPqgYJMVyusc8d58pz2DdZ2sOMmoeJLrIf1XUqsCBrxBCRZgxYOSSuhQhjrf64TYfDmXFY9rVk1Pj1sNYMV9g4+b+klqK8rH6i6tkWVbPAM8prmQ1bdY6ZQxkzQXJQjJ8on3Epws3uOt7rOC+9+paTo9XsjMqwQBBi5QP003jcjNhjroSW4r4bLVYN3R3tZRqg6YWuRsDD/ciDEU6AL3BK9u3NbzxjdhFCf+maWXrM+rs9rln7oNVsQSQZCVzwmdojWx0Sxb1FFyqsz4uSUre+V0aUS6pUgV7QJ0LqdIXYKF+83fWclFv+bZb4iuvE5CQj2cpAoAP6II68ASSp0Ec9zJkFWsJaN5wXpMSdJJ1NPRjGa5+gn6SPK0Z/Uv1DRSmc3vM4px7z+fIBp7IkugvZCZnSljH/hYac89sVpNLH5iqaHo3GCpH+AQkIBi1VnZuG8LfWOy11+aShgsL0UTpIB0rYA3B0hXBEDExYLoZEZCEYSSnAquH/czqimT3boIH9iHUY38r2GasGz27oyi/3KBfLhR8lru2GeM5vynXl0lJMp6nZwmIQO7M4IdJ4c7ITJ/FcistCAm7Pdo+zzRU+V1kJXCaqiLUtifPH48W0X8lw1NLrktmaox1LfIiei23DF9GN3d+7Rg5o9mdC1b0efhGqjWmdHsMtIY7fqCUW30WFNVWXa6KYmyVoYgwEguTXU5Gcz86qz8xVER9nikpc0/3JVLCn2hPk6u0rqC+D2EKv4LwLV+NEpT6SmYWU6E9I6McpM0/Io3YpSviM2GXfIqAWRE/Q2ijM+QR35G1jcoU0tiE2XVM81I0kCBzIj2sVaK15lQsxOjOL+tHZrpaGoJw7dQJ6VQ9krouY0RyrAQ7I6dtmgitYHiX+Y0OLGJsfbVmoJb198EGmPdwZIjUBP0q8fIDp9mdN4rxwgvWq+hEEFEVioZkfRbjOzEgu+zOA3yqngYS8HdgBxp02c6kpKcUC+lcAk9J8bG6rDuaC+J9DUUUT5yErrHXGTEy/XCbPU3jHju++FoBSTgAw+ju3+zoSn0jWkw45wd6tZOQ5Ycn+cMKfgmsTMj/MkM58Dc/YxohrWdZcsRDUmJXVEzit6hKmDX7/FIDECGOixgCTQSlEFp7SRovJaRb1EKqxMnGfmmfZFqLHjOGAuUHgZmZXtG+94y3TSTtYmcH+FHchnl+NAoxy/hEiO7oGzRndNPpXVFpXQp1Mu8NPVn9AGOKgQg9eopdIKhnnUKeMfEM/rj2uJUMYfRj6mThNHWi4yzr6JRcV/zMOLtN2umu6yzzo/iBxntjmmOXv/pjG7LtKKapZ1aKVSFepmXpjjGH/APCrHzulMCjQdzxxkQkN9GnVmLX0XgkyA2kbXY5Bg64W0Ybc85Y1L4CWa5u8m4x+dr5TpL/ibK2ZF0RAAZ8exR4Q5dbAwjnLu1aEZqJ2HIDvUyX88KdMLPqMQCfEegH6GIyiMn4PFnrMlFG7F5PJo1+c1dZERi/J0R9/cyIi9k5nqMvV/oSp0cllWLnBx7OzHyw4c6blmijjLO/iVFUUI3LWaVwV7rRb6eVejCKKXYnunTCorgjONn/lcPazPXcsfi4sllbfpHuTFpPJpRz95nPIYJIqxBsTlMfbwl66aTo4cgzOjHveGoLWvEaAs2mS+zRjPNFhVGCiOhVubrWYllbXRYLQDx0yZPZyjNHb6wdazVZkl4JDVgrXZIwGPzN2wEtbI1hrW42K2NPpI2hDs1kkaxDv1Vwh0yS45YxIhf8hZpmmYSvd4JtbIoTXGsRvdkqKoWC7CqjjqjoYx09FaI8rFmO4vEiEXhJ9j3rNkLlhyBxfGL7GD96mdNCg55NVGaJX9HzozoJqxJoVLhJ5gD9nc7Rl3UXrMICXpJGGzba0W+nhXZv4sNCiCiFusE44lj5kJZ4eCllWPtjp6Bw4rurF1ByXocxGYTqOxgbWF9zjH10FPWVmdG70WsTcHHxg5X2jhG/tsimD6dDOOmPnq8oU7m61mZANcUAxA/bdqUZKAZpmN3NI41/GwjBuX7sIYzRmIwPpEdrB9Zp7+ZWnhNkj/aiXEzkjUqKBnrYO2MY/RTX0KROkmYXgl1Ml/P6pyCYuxo60izGUplcujfSGQtb6ipXv9xrGXXVvXSc9nBWs56HaSF3yVdIOfF2VzWamIPhyotjvEXaJVeUl0jLWaVySh1oihNcaxQCGtWje2JNG9A+dKhe9vHmo5PV61mBmvaY5k01XYJFHawYv2a4eYaMHMkNXNebBVUsmazezlQQ5+xDuOqEdEhfdRKoTXUyHw9qxTgb+UA3Pg8ynwE5V+Ry5uiazeMqj7W9oCjapW4yNr29FJrcxw7WD19rFvPe/h1ZclznRYDPaxd32SH6c4V1qPg5fMJQvSXPmRCbKiR+XpWKsBXyrHToswSKKnIRbKu+4N4I5s1frGESsXjWOO+qiqdimQHa2Ui6zd3F3oTZJVyVmz1sIY9cx2krOGsy9lELbQh5z0BKWxoRL6e1frT6pnTMRGmNZSeDsrbECz7GeFircf1VafgWbsc1np2JXVGlGMHq2sk63jcXuzqS2pPTorjMazlmGEOkXcBa9N/lx5pQxoehfpYrGHFAjyrHguwpY4uraAUd1D+K4BTcaz59tNUuS7IZ81fTFMl+go7WHkHWc/dE5D7RVILJ8Xmi6xo7n1BdtMma2+lRLoU4Q2nHKEqrGL2orqLG3x25KPmP/e79GnlDDAskBs+0cVRjlIf8vWs2stWkHX27keXwVCGOiiX5Z3ow9rfPUWNiC9Y+4Li3moEJOAndrC8HVjXdU3chkv62Tkx7RnDr/7pt4cLVo9JVJTRuyx3bOsO5eBxnzuOzwGGnv3Tuz1fyMxRVPTmivFj6saBkI2KFMpCbczXs3IBO6kigPOx0xZNFqESlGgHpYm05xPkFhvA790qeEW52ABOjFDBFJvIjpZQgfW9HLdISRZLckq4zjPwdg9iC561IztbckTsg0hg/FOIo/N3LqyWVfYlkL2Tdr5/1TgkDIdCbczXs3odWKIi6zbmk0XghRLloMyXZW5iQ7hKhWtsCAebCixnRytdoGkseyVm0Sx5r1NiMYOO+zDdJKnu9A/jQfEvDo5IjNMZcOIDsVrdJLlx6FJjUCuFLm3I17OCXVioJIB7n0eVpkDiyUHJ9kpqzsbQnw+vh98Y8BJ4K7MdrZLPWOX2h4RKn166dOk7wd0L8WpwuWWInZHkCXFGFGPI99pmEcCyxb6AxKsdGvMkw63+eeEnGEFM2mdVjxGQpn6hLhalKY5VDHiekiwEz1OlI5D9jgoX+sYkZ6VPJX/1G1WOxLbtkX47f3KZ05fP56jEF6tBGyGIsMrzk2dv+aiXZbOnp79huWOKWVv+t6/bKeUZBu1EOVZ9Q2RLQXbKuEifYXouMdxgVQ81O7czgYrSXHE3LFmgwuO6iBV8n0XSdHJCVIgHdG8zgU0fDiijmiNTg8H2SQ0hsGN/194reUmGdSFfz/oEkNgjUSYCme+wfCJFJMb2rOqGuqlnssjmOyP/tbJHFW4aAiu8H6saf29L/wSyuewfoV/HqMLPomF5p7K69T6sU/XvPHr5Fz9BH+cvuXzFAFnuWFYy7kvLHVOK7Pp8gux7qzY0forXOUnfOyHCujNU/7qNBPr2QjAsyudyXD7JhfLsoygCnX5ec/WhJubrWaPsbxFlERBBwGFZKeVTVrOlUGGzm+w+5eGDXDX4A1ifsZrtqvwRQnZPHt9qgxr85LnEAEoox4qW/+3tE2TfFYkfCkqNTek4BQT61xWTSWLm4crAaltyBFqhki45IVox1I4lCPxcgQyFP3ZYooYwTP+ewk8wgu6tcVFnr3TDmpCvZ60CSD4wmqQAWeqwVJUhJpVVrP3LUS9JzjvXxK+CQEuH9IdHBYG6bl84Sc6addKnAn8EqW+iEhkfpntJZsjckz7j8lxiuMHgYy6NIOlWqN9B8UIvVr9JCnU+HPcDiQ8NIQUnVfEB8dR0VOowzOnDSMXrCzRWH+phUZriWK/s89GkJZDqDss5CdPiFLi/JIFAPl7ngcdLX/wEhZOZwvAzxOYoRSAtOWJOjAIZO+CED2EFFz0NI/knrtU2KrMYesylFQTy+BeQ+BxWdSUVczokLGWYU4eSosUPwmDBh0zHpHEujDaZpKjljhmgLSn06EG+nnULIP41SVLdwRsjoS6D7/JjMoFd86UPHA+C05rBx30bTWCPCZy54PgknPoMf3dbN8Es9I1pVYYhiZgPrcMMguoeuAGQIFQgH46UVT2SLJvd6TCbQfpfc5OyEQ9gcD+H5LnE8BdDFKiTSd3H1TUlJYdDLfxf9axddikkqQekvMNSx35vMHQBHJVJoE8NB+crWD2gnMmG5n8rmkCvqAuOZ0EZGg+ufVUvwV32m9+AfMCwu8wlyCsWwuHZSHWSVNPZkOYBEdeTlI6NAeE75Yj0Yojti5PKXe/pSQrlWvC//g9rGMCNG6VIdyDPHJbP7JbQBdrCNQTdOzASGDd1w/BWZuATjxL4Hn2glcsDcoOBe5olEOz06YajsQvW5TyCndQGju8MTlck9XUyeBsxxI69SfGx+yHwX88lBscjuT2ERiVJ7aRaOkqkWqu9Dvyv/0M6Zp1ooimyG4igxGH52G6vMWyBEvtcYiAF7ywAxpY7FsZqhu0LjSIFw/KB8QcwJjDwjsUJfFi+32BYtrMMOTGW4C8HwwI3TuUkBeRIJ0MsQ6w8hJRv3AcCz3I8rjHAyiIxkvKfaUganoQaWJSmONYzgIN1BDkEJMdhecdeO3JhLapAaj6XGH7MhrU/AUJYF1jljpOic2vDiukNIbw7sMtZpOLcAYbiPT+k6n+TikI5MDwMpVxJ05wLEe0gLEwgBHekQBAEshyNY/EAhk8iBD/QzrdIgaia9tIwIaV/upfS0l/sumtp6ikljolejklTP6+T+IQh/6yk9Pd4iwgUa1jt4wC4oyzrBK0J8gUQl6MlNpFBP4ggZcfOB8WvQXiXQTc5Qco27giKB0Mow6BjipGiZ8obiXsM+ItoUvMDMIKnJkImSy6QD3cu/MwAp4YRiiVvAeDmjsYllr82gVAUKugmIU0JVSolizLhaUIa46XKfFbcyp1eucTW4lA0vE7Cu5fCSGoVazo61/lP/XcKv3GxJkGVsjY6DMGkl3WbVZ6kch6HIFeBcISj0sZOaQIdkr8+qXxH4AUlqLgu784AUKL2hpPCya+D4uLyIu6D2l+ClC3VyDiMZcA/5ZGiblEuKDxXPy9+gjoVomsDWBiQAELyTnUA30xyLGYIoLzReYTkW3qZmpdkWBmjlEK110nyG3M19vKL5yQFasoUa5iQn+4EvaYFcFYpAGk90sNydxNKaUcl305PGLA/ldQOE7gh8cfyPmDI+SYp7f4F1HZ5Sxjy/oJn7UjhSY0MQwdAUyNI2SGCIJSJXny8siKcCoJNLD9lCKG5RhCRx0IFx2IxSxfEPiEsAxLQSCsJg22oSCn0SUlms8VGKa72zZvtxicToqTQlRrFGqZmJ78da20vNM6pw7owlx7fQTnlqDSwT5ofkKDybVI96ySk3Ouy7ggUSP+VVPfOhsTFZUV8A6l8QI4kpUViFOUzCH39cKZmkcL7oLDYbNop60xYFi9PEFlDiI7PlheX50isyJbmf5PwLN1OJ14nr5QwyjZdcJJ6nRgnen2818lXlKY4JmjrOTj4U4B4VQAcrSNHGyg3HZWP7fOE4Wa/SepHDQbEH8v6gAEL5Uh9U2wOSNtl1WfAS4eS4tEXjMEjBtsogpQ+CeU8Pm5Zy5wJ11i67y6hmiqPtzgSgk0sPZQwXZmtj0rrYg9VAcWvamZ9VU7iXfnfvU6yYg0T9fMAKwa4pQbrhJmT41soFR2VBnbZK9ABeQhDVxNAGYWfYHISBFFAHxCG5peA/BXkhJQD9M0IUr60oMQI3IkBc6FAPpzUribQgHC6bq47ESIi5dUgZH+Tt9/lOEyqLW2eFxXaog9PEhDiL6U/Vs5JvitfNcpkKtYwXe90ViephGmRQygHpY6j8o5d2jDcbwnHrqPhcHM5MxnuAy8KFGJVDxxuJcdyxzBcgVqTEBzmMwBbGGrL66R6NyjbdXPCifArS59nYpNcTxrHOg7NWXbt0oRrUmVtSOlf9KTQJyV2nIIJqakUOpOnWMOk7Uc7hOe3ANIVAHDn3alhmTQolxyVxfaYkgHnkYkEDW0HZ2mSDHcKnIUuQnLKRDi50VK+gCPQ2xKK1pbXn7c6lJj1pHqpPVD8ATlSM3ecB+YiaTnHCN3+PmmHHAaznrSPCNu+AqiJcy4iV3ykRXJKvpLXSbwU8ElSrGHqHjxgjfhZdxy5U6MSlO2OyjZ7COUY7NooQrNENhgWGy1jH4NtWSAfTmjOyAHDu2RYoRju+4Sj+UR7IxnqGFL8jy4uBjtIM12dB+ksfSshvEoa93cU0ln2T1506JomEtKEEHcvSb/XiT6nbIvroSKFjqQo1jB9W0PzSIB49N6bGmug1HNUNtnjIJg4S44gRE/D2S6jLhhfTUK0KpwUU8I2ON+bSFChb0ztdPcVlCemUhEfdWTIOcnIeGVNch50k7aAMA45JO1DR2GTrMRqhG/Ibj1IoQq3hPT5Fh7sjOIUXqSUnmtffcUaJvFnAezF7qbvnRgRUDxZDsoCO/RnsL0IU3cTML4T9rvjAvMtofohGP7DfpMECphxJwjNtpp78RM0A0h7kRhJ4U9qxTHwWL0kOw2iXbJq30GJigt0WYKKPMega6Ksa4TxbS3IeU+giFnRS1UWp3iirz0Otbry0tSPiXzvv4WcPW1iUA4QPuOgdLODqL1gPiVcZ8RB4fr2E8ox1MpRuISNBrPYfrEM1nreeEL0id7eZqBVSVm3WK33BDqDF3j1kuc0KMay6xDSD2SxmFTH4BxLzin8BEOJeurA6yQ4RFwKW1JixSnf3GrDiVZPUZrimM49A6TiBsFn1BDlg3LYQXlkW0ACBGEoAnkKMrQazET73YKSOIKQHeuHIohl2u0nMJcJ0xUXtdYBiCDTVOXEz11YyTO4kABKuu40WCtLUJCMlSVHxMgSuB0DoZKsLYTzWB20QUxKl2Wn2oxgpamkFAaro1jDlIZGh5tGDeB6a2I8gfKvDsoe2wq+z8JQVxO25lUo/EJmttcIhjqK0H0Ehd+01zE/lMiuqNAWnT2fILkwfKdISfPmp9ms6Gxkxkka6ixY4Zf1lNBuIMtzwhEo5ZMkKI5Air7HbwsPdkYtBa/d8w5VgVFstqiE77LqijVM67JmRgDXMLPu6CbE+BjKVAeljW2LoXTyokM7/VDq2Ks+lP0J+EwTKFC22asMQ51JuIaV09g+hlmLVJxU5iCrK4gk41Jd0hpnQXOWfMGNV3ScJLbWHEegGEueSVhvxs9L1cEQ7YU9FSM57CMVkkJvVeWlqR9T2z0ZqgKcx2zsxLDcsVAykhyTHja5BSVQhA4ghL+E0slejaAcIIRDoeRE2aknlCtRyNAYjf0Gw3VMgb1VLrLSk3E5JKm/s+BrWbMI8VGytjsColyScjLRoqnoJay+gJaXZO3YGc2jlMJY1RRrmN4uI3WAm4gBbCVGfyi80TH5zCarDmKg3Qjj0ta2HAiXts8JP5AhboyS2wPhYfYp9I3JB2UCYZs1X1/tYWwj6FGzBPdY9eG4NJE0wUkgEmO2JIEchVnpbEkCNcL4ZQ2QJHAS3rPQk0IPVlLYbTGrDBjR5qmvdH9VUZSmPkzxPwBIwAsg49xokeCHMtAxEcrZdA1KX5RoNpTJ9unFQMVGE8ozoayyT1UG2oTwLaOt3gzzMbDS3+5nBPuiclKS5Y51EmxlyaGE+jpJLDab8bvLkjciFtUOOTnvibRHqr0nuDGqXVxKq+WPj2kOzY8BpKFl35MW1BLKV46J5Y6x6SoQgZtw3ivQgXxpnw+BVE/CKWEDkE72aQXlIUIRgpiunsIQKhFk8/brPkZR4ETlsqQ6TgLBIUmuE7itlNXM+A2SNJww/wA5T/ANkb5URtbrJLiVilNhqjvBeLwAv06MDlDKeTHbMQXjmjDu2pLnA3IXKeoAZL9pD3M+kDGEtNgcQARaV7u0BJLiRogu6eoyDOt5yYAKP8F+FXxgLHOyMPlMUgMnQXVJXxLyhyQJXhq/TpISUWvsx00abiElhbJXwoZlwotWyEtTP6b7e6PlhPcQ4zUo/BgznI/CWG/LPoZ50MTqOBBeY4+9DDMuAasV2TDYstntMZSBziSMz+hKkA0iIxPMmVYDGMvsdekmJp9LquscKM2S07GbKckfbfQSfHIEahhqdBU3KXTjJIWVSusKMrrDPlLuC2mp4lSY8He6LVjNKfanhp8WPcAcMVqTYQy15RqQzwntC0Am26MXkHxCezCQVfZ4G0hcBEok8Oppih/EpwQzIAGHhzOa7UNPEK4PJe12DhyWFBmO3Q5J/NDoVWK5Nwj391EbXh6nRF+7M8ILL7ZEcSpMeqc1hgDJSFknGida3AGTbLSuwXg+QWy5AcN3B6/TQMTstkc+kBJ4vQdkqj0aANlDOH+up5UMchaIGaMEJYyl/97DJMJ2vaREr1OgmaTLhH5TSaOM3s+SUpH7G7WDCVFOSF8zygnTK52XPz4mvtuYj9X+0YJSoGQPMVhfgShHNprjYEwlvKsB6WSPqzDae/EKi4chiHrtcBXISKR26OlXEIkJ8rwjO3gYy0jBphGE8DFJXNopsFaSxZLwC5X0vdGrKykgRyJndsFMSgpRksLmFeI0vIl2VnEqTP3YWcs+BaT6JMYjKHzAYA0Hcd4WS45gmH8iRhdgCGCIbUm5MKoQ4utgcDXbohJhRIYjRR21dBnEQpJdIB9uubc0hdFstDqLUPbGSxrmDPBelBOfjN8pSeNMgyfwy1lE2P+CmZR8QelZGWlpiuuM/PEx/SF4ACmA68T4E8x2Y2VGghCbaMsPMDwB+W2EWSgMXmPbCIa5C7NZQB7aVvCsHcNcTFi/pqXhIAZJ2vxWLmM5oFUaoX1IkmCZM2Avy+1AGhT45fAKYycSI8vNR68qZpPDaPe+Cyt+hDAMi1NhHXQb3+Nky45dlhaPwbgKP8EMVWMG+ZotQjkY5wnzgtUDSE/b9sGI9GKW54GxxLY3gNxFa6yW7oPYKiNrdT9G82BqHiG+SdJ3zoCHkqwtr4MHkhoau7GSLHcMer0Ru9b2GCX62pvRlhLHMCxOhbVwxQApOL0nLbz3ofBAQ3UYRqwtrWB8jFr4ABi7bFsOYzuh3hGGqKO2nYbhS0ArPFdDeQxyhP16fzCOsXQ9uGkS6j9LWuQMOCLptg6aSypj7FZL2oieKYjgJSV2IcJekuFavFgKtfnjY00E7AFOY6cFfQmmkaFqBsMKZctCGNbzxqNGf8H40LY9MN7HbQ6M87Z9CeMQ4X1eQ2kgckw7ucVqnedhLAWB06UI+62SPBFOgFZyBHpXHfwhqYqx+1aOKwo9WojXy2HkdRLCiB/CVFgXy2jkAdJQehxiVATDp4xUZRD+PFsE+TCO4TYKxlTb7sFIx201DIFs21oYbRCbraF9IJqSXfNSpzOW/ntio5MI/8eS+LYTwKoeOVdIh2E+OSeN3SY5onyEv8CJlzTcRGiii8RMJ93RXqLkNusjRkk/mB4GKiABMSCqk43eGBDzCfcJMEbbNhGEZxJue2F4kmzqA+MwYgc0dADEdnukXYpnLAXhSy9kZtJieK6ka06AFDnfaYEuyLlg7IbLsdYRDVgmDS8plCF0V2xGO9k3GgARjBYTm1pWWtAXYAShTON0lEHWteWff6UBgzyJ3A4YGbblgBBkE+5mLgieZotbAGE0RuyMhoSuBHHZpmTLHduU0RzeKyABpMvzkpo4AQSKHIut08Oncr4xdi3lhGrgKF4yYRafUV6gIWHAmjCyLkNlYnwGhmONk9gcMIQKtmyEMRu5JB8InmRLJoMUKiFHi2BstuU6g/SFI5agoUEgVtnQ+OMcxjJjzmPSaDNJMZkO3ySW+1QPVeT4owxdrpw/NVANrS082Bk1Sny8JBVsSh0Yi1IfxCgOZ7dpmEbDsGx2W1bC2IIc9YGxw5YTMH7B7h6Mgn/fSFv6wlhKmF/Uzx4QY4om6c17fsZy9+eTSKsVJXFDh6+xpIZ6WC6Hjxm5PJbbUwNl0Zp8iK/XSYgxif2p4V8MRidDDLM6GG5olKoxzFK2TIAxC7smMCrYUg1GKHZ7YPS0ZReMv1Drrp/vQMx8uTtHWjKWMQ/STdJseVm1HL71kirooa2kCkZuhqSaGjAFECspOYzPXg/PmDBgnzHaXmJQazj3jNJyGFfI1rYwSmD3CMZOWwpWDxhiUrF7H8ZqW36AcRm1ZP3UBdG8SDXFJsYwlkutLV+S9OvOkbTUdPSOSyqrh6OS+hu5CpIaa4DmY5WQRuAjhWo2pzPA6L2psRkOlzBIC2G8ZdNAGCOw+xhGQ1uOwxCrFbuPYJSxpS2Ma6g90s89EEuIKOKjW4ylQDu5z01ariuJNzp6++TEmHrYK2mYkSsuaZkOhmB1s/hM0qDE/niEMEAEIcAaqWFOh3PPGJX2wbDcsTalwpiB3b/C2GfLSBgNsTsAQyhny1MYW1C7pJ+pIN6n8s3iGMv7qyw5gnRdQ9Z/dfS2yskgPQ6VJDabkTuuv6ZYScNDfBZuUBhgP0JHSA1aBYfHGqL/yjCr2VQDxjHsvlWiIYx07Hop4YExBrU2+rkH4sZURvOnt0NI32tkjXb0Ksq5qIkdkuYauZGSruvgEFYJq3+hc0yvZFJ+CyGABHJUAJRshLxLYcw31SiJXSiMCUr8gd0sJWJhFEOtmX62g0Dz4uxTpHVTEJTE7zl4veTEaWKFJLHRjss0HXTESgqt6Eihjk2qC10RsrHTFk0NugqH9xmgkQyzFalRFrtdMPYp0R+7fCUGwjiAWgP9dNBH9yOFn2Ck+y9lVXHw3paTo4ljkqznJRu5hpJW6GAiVuNFJ9HrDaPSr18NRDFy4ggZckwGtCjc+HwK5A3byhiC+jAm2DLeEPSE0VyJXqgN0k9dTcR8aYUiA/i2rHLhjl1bOYIyTZyQ1NPIjZdkyRE66I7ViaHjdRJuVBjgNkJOawzJ8XyCxMHhVMNzxwXDNUmRkti9D2OfEjWxq6pELIynqFVxTKrXX0aGMC9GEuc7drOMwHXH5bakocatNo/OHM3KRBAqG0cHyUHvABoXbXRWMUyresj2GjCOYXdNiYYw0rHrpcQBGH+i1kw/T/ATaB3uesko3pM11bF7W84GTUxzXMZLWqGDg0hda4huL2YF4AuEnBi70SMNEG8zOF0vAmmuylDsVsE4q0Ql7J7CECyzZTKMX1F7x+Eo99oOMpDFZHEFh07MVDkXNVFa0htGrqGkaTq4gNRwbxQxdPKvZFaWghAE/elBawHxbWNzjWEK9B12+BxGNewGwbhry3gYE7CztrNg/GhLLxj1UWuln9dx+3pWFBnKaX5ZtRy6inLiNbFDUr6RGymplA5uIdUsbZBDZ6JsVl0sCCEXRhHkISRBdqaRKfwEiwMynOy4GsZm7FrBqGlLCRhvY7ccxkBbJsAIRe0X/TxCLK7WGjKcV2VlFPrG5MgdliNQNTFD0htGbrykOzpoitTpoSOFTsPiQA+EHpcg3nqAuJ+RCWWgM+3xBox87L6H8diWvjCsLY9dMxhtbTkK4zfUnuhnNlqifANf/AQlA/q5LL7myD2Uk62JoZJGGrmxkqJ10Amp5lbroiOFesNyRQgBnkcQ+giS57hxWZYDxHPCHuNhNMduEYzetsyA8Rt2LWDss+UxDIEbtU76+VecErftJGNaNlFWXJ4DN14O5+lhsyQrlJF7LKngm0QdpCDldWKMznQMy3MjtBSKZLUDxIJAWcOyh4EKMsme/WHUQu65xBAPY5kthb4xwbiH3S0YR23ZAeMKapatSD91MEpZPoQMq7W9IIu3OHBjJa3Rw0NJZ4zcCEljdXARqbGiI4Uyw3LTekShkPiBUVnvgWK5Y+xiyREwRLmQu8MgXV5bvDEgRmMXB2OvLSF+EC43YiF+/RxAx1d3pJcM7ARpkWUdt76SRurhc0kBOdIYfK/IHUkPNZDJSDW32hCddzEs34DQw5Ck8BMsBxKfMyZegZeB5mTaJSABfhBXkNsFYynZvBREjAu3kgwzwRYqB4JnIGbJEayfSsg8u1aajG3Sflk8ynG7I8lyx+phlKQIY2BVjyJun5yPNDADqxazygCdWzIsgOtrEtUBJYAlDEksQ21A9hWEQHBJ3I7AWGvbWhBcAjeLJcEQRMnmyjDmItZDQxtRqRwbkAAyvKuk5ZZ22LzZct7VwzY5GWQMripC++X8Vw0Uxyoh1UNHCj2G5V91KawdJBb4ow3Isvtg1tjpEIwJuC2A0c22T2E0x+1fYRy0bQGMKogJFTQUjYcgLHC+kJnJCO/wyeJfHDYSyHK26eEvOYJsg9BUFVE+OXs08BAr2ak2OttkWPYOISc8nSY0BhR3TjIcZgeGKrhHdh4MYxVu+2G8ZtsoGAtwWwijg22jYPRDzHJ3U0O0AYkvPMlkkAdLE2jFHbZOcg5qwVtbzkKDMFGVk3IqayAUq8oDUUTnmAyLE+6LEITFESWrPSi+ZDiKMdhZ9voMxkLUhjLMirYlwiiHWlQ8jA9s6wUjOxmv+zo6j0Hu5eJknC1+BkvjQ0mO2gM5/jwdrGG5vyhyDZ32quTLEajh+NXFqgt0wj81K2eBkNsshCgUC4uPGIyCZ+3iwVRPslcvGImTMBM1A8h624rD4L6YrWSYljvWtvdg8G20erOORB1Vr55QrkA+nAz1IWlcw1H7Vg6n62C1JGvLK9Iam3CfKqlyuAJ+S7Ha/MNdufBpbrWhWQF4FaH9poq7KSyBPtdQhAxhsDXI3pthcC/M7gHJsy0PSBhmtYBYoWx78RNUoMG4hFYZLS1RzLfgtpcM9lN5cdcdNMsdI8na8jpoI2muIg2wWcGq3JV0GL2ujFVte3SO0qz0idCZUoWsUH5QnHvTSOQz2HHJdsvMhtECsULfmLJhVCc7toSxCDHvMxieSbbRbhjtkrD6XkuVlOry7jQy3uEtpfEN0zHbKamuDvpJeqzIJWzGKtNbkmATejfR4tdFZwJmBRqnEHImsyQLfQmLBUpN4zCZ4b5L9j8EQwDL4mW5Yxnmd/boBoM34vUHw9xNdlwMg4chlRCjpWiFKvcKJ0NeTB57HLMwgSZHEAtIAH5ds+XERCnyFjazlDHj5NxCT6iA1+TQaWNUHhQgHSH3ZKhKl2kZsHhDmlE4LoBwBLFlElrB4ES85gEZY4/lQD7DKx/IZXsMBDIHKbHRrCVqqUjOx3vJqIe0l5fR2yGjg3L4Ln6TWW5lsv9aOeuw+UwZWiiHV2DXCS8ptKEjhfWpmZQyTM8ifG50IWvLA+NvThmDEZEM91uSeA7IcLSG+oCMtcdKIF1CsEqOBFLMHhuB5Lz4CYrTA019qkTlp5lk4GfK46/dDtmXklrhV1fSHAnn5SzE5p46DSSdQ66kHy8p/YlOKGe1skkZB0JzWhZhQnYD48j1RqDsIoYbmSfjEyC8E6sGDDM+IAH2SI6BwYlYfc5AT9nDex8Gl0GppABqKhVe/OL3yNhnPpPHnzlkP0q678YuOV7SQAmV5dRDxhSUqlNR0hPkVjNeY8PH6yTEpNw3QgDXmbLrfcC49lH9DbnKgJeQTFNQAGQdUoWfYBeB3CO79gRyy8TJXQ9IOdMetAlIihujOqypCtAW/TqFDP85AH6x2RyxzZJ4JXYPWXJ5CU3l1EZGvJfA6gyVlBGQANy6ISalZ/GRwnuDEptaVoC7CJ0Saag1NI6/q7sd3RmwoDBZCm0D4huK0xEGesQ+p4HwbZzeZKDfkV0tdywQtmx2hNxLdWWWg5S9Lt0kBzBptzwet8NI3Jnj0kNSbUmtsNskqZ0p4ZAczsTlsELUXg7PRS2sNmJeJ/H4vG5bc/LcFuFzpU3WImicHau3vvMZcjGSWxEIv4NSVnsoafbZCUWohJI5HIro0u2zA8pahPaxrkhsIpz2//UEOYg/AOBOzyeIccg8z/NcWqDtkgTqP/9KA9yuC6CkT0niBUl7cflOpe8kdUYtlhGTVh3HJ+zTnEBYKUaHQhsaK9CgMf+rV2O3NzDkW0mS7viAZK/B6DQDFche+7jbAeEJGFnPG89A/SfsQ02BcE90zH76OgzmaRI5jvcAcAe3UfCuY+YbWVpYLom34HaNJX8uY6KkN1FJGqdSrCR/QI7ErB9mb4zQ2IxJ3RdhBI05xKFB8PjTTG396mPQK0n210C4M0InMqDUIju3glIvBJ+sllCGk51PQ0kJweYh62uKC8ppciDTPAC4tVEQbOKXzgtIgA4+kdU+HLOQ/bJmyLgqaRcqVihWaZpfDq9C7BRj1mxRYRB63eGZkvlZjJ29+1EnpBM8bjpUTyFvMexNJH0mFJ6Az2WGetNelaBwc3ysLc9Qm9vrEyhcHxn3BY1RZyiCUBg+lhyhL2oDgWONwRYu8jyXBkjwURLnY2a5Y1iy4CXJbCHpESqrlKJbku6H4PUOanxb+IRvakqmhdIfUIdG1IbHOWd1tOIqwx5QWt4KP5QrLmw2e6DcT7JXSByUuJLYnLgIpre9aDeU2iVxOcw6KwaFj6DztkDdkqSthPkQfO8ZgVR++RtZGqgiq5GJl/eQrFFSFktqiom7vVqvSeKnaBXIh9fGTQr1CEmh15DcO8BtlD6ZPHRYAfZ/69bOw0gGvoUACu5B4UHIZE5kqLXI7ouhsCiXiYs5j6GeJ7svh8ILUEkQ+LW2TAChxN1B5s43zFf36opmQWDXXf099RcF38jC76YsrorXYZZdXMq/SsqOQOQHVqu4rKUhWI1i3BaPUOilytqMuG0UYzF2wpeZwJcVYF47VC8BCajF0DslQXgKxt8QlzYMtmD1sJ8VCgyXwSWVwX5kv1LZUDgWkzasNaoLhffgYi5gZhZU/OjVFN2AwPE1dXfAz0U9z4Wet72s6iFYuZbKamlKaS6JxyOyQDG6Iok/Ryr6InLPitH9GpH5jAIlgFUUCjuoAl88oJO0jgw9pi9BjMiAwvuXYXLWD6Yj2d+sBya3AiZ9c8HkFn6C2Y9agMlojEdNj+Z6gvGUQKUGF3lhb031jofAtY/qTSgn0NnGeS7sqIcs/hGrIyxbqEBSV8t6DY+SAqjaa7KeZeL0MSN3MBiFl2RCerYoQ/gtCtGIHBWY617XRdS1bAYfSjAvg+FPTDxKCYoZ7I8SyNryYLhjFh5ZHRnsJpI4AQxXjsIiaxFrLuQbKFwvGZG/E1+GB3xuaolqgOBEsdk0Zoay7TeysEuTltMVpynjpBU8aydH6FBZa/EYxaqdksVHUJqWi90FovRJBmRZU8DpLEhEDX1K8IY/vVp47xbDPxQFZD0cfg2NzKsMdkBZGSUTwfCnXiy8mxhuTRnuFDA8BwuBk3VHo8BwGzxOtOeiFSrt0JK5HQS75mrLPYfteSMLOeooi3/DaTbLbkRy78jKXoZF2drKUVNZG05gdJmxYymsYhR6Uifz0bPF2cXNaEQ/qsE8vAJ+XS95GH5uX4K6Fg5/hIR3AcNtQ1LfgsMfY9Ga4XYiqTPh8BYcDrP+VvjA+Gdh8eIn6Bdc9LWtlWFqiI7lgGBfqqYSOrB95wUkALnPpfEPGA3zS1stidpJ4j+xeJfVKyaLOyB004/f06D0DsO4qY82HZ98ojgBpMdOWzSR6LIinF0rGjf3R+NYxT8JrPW88YB8+3CownA9jeU8BsRjcPiTAR+WkxAHxz8Lg43xBoAGg+EBG3EI2c42W+5uWv+kmYaoLQzmOeE6GnqB7X0jC7eI2tLa3cEnrw/LzsmUlSzrLyQm5SAwaYAsnoXO8wmSwvhJaQlK4Qubjpe1OAPsZSq71irCvGF5CGIF32c5xEoOJrhJS+HwgGEYjGHALUiyVT2APE8xmOADND9KDq2Cw4lCB6hXdjobgZpwuOV1DMJfZztusNwxGqLvgLAoV4R+jo9j+89zoUZzpPE6fB6x9EEku4EszzQcxOZgBGixtHbR2FRhDbRIcMbphd7YbJSdmMGXIwXBR2SirhNVYa4+ORypsQtZzaVlAdFHgFgAq6r3ox/SZlnHATFvUe9hDAOuQZKjBTE4HFdCteSv2RDQ13D4Qlf1orqxfVuU0k9EdyB8sLxmTKFcNsucF5AA1MoLdGlcEZs3WHq2JUdIi5XF76JQXgBR6OuXxWITkenv0UEXOIVzamsyYmctO8BOi/RX0olKCwLKME9/Go6QFeokK+oaS5BD+gBiX6JqdRjyJyR9ISQWKqi2NZsBC+QsWbQKENceq1bW72wQhgHi8wmqRXRme4/bqh1qXBsIx6/WSvQnLPlGFmb0urzc4rhUy5H3iKQXrB7Sxr34CYqAOZVRoBvSuAwqZVNYB3whOIVXbzL23GINQW1CUcGzduPUYZ5eIwIX86zF7rOyxQj2R5DYM1Ctzxj0e/KOg+LWplJPPQw5laRHXwTEF3epFDKPjQJdBcSdlqk1rRNL/HSZbuhtKMy1svSR/oylzwtIAGab5fGz0ph0rcfyH8tz58jimQi0ZSRuy8s+ioj3JOthbEi179Nc7B1ABCuAW60pRTsFikLMG1qvwCPizwus7m8EPGQ6JPb3S1In+UsGvYAATgXFm8LUcY/yM+Q+WfKoDiTOEButTsR2Ng7DIPHoHSrV3M9S21k2u25oNhiemKaJzH4eBjjPhRhNlceHIvAIWcjyOxDAwdL6uJSbNg4L8wtpXO4YHp+xJrxOQpAKpbD3E6ZixQA3LdaAfWNaVxKoKjFnP5kQjsKaWrVZYcG9KGiUD4rZqp47qgTkyFsMOqYrhDMeULx7ryrRvzPstgQwsw8k9r/mVmTKBTYQNA8S3z+ujPdHAWTZXxbIh2smpAkYdllb3q0Di5/BVxjmvIAEILbeL4+3J6HxG8v3n4HwpzQOVc37O2NBZ+Vx00wsJvh14R2qAlbh5OS8J2Im7hRgp0UbgmnEokqJSjHz/tYVVCv1a2VWWuC/Q+BNwT1Y3H6nGhM2MOwPCORiWBxn2exqrO/DsK+aEOhtUMzbCz/BlFgpCLGhqOCDxL7lphqlhUoM8NlZvdCQK2CYBd4z6E265Geo81x4UQsAPBCLVQzwO4I4Ql7iCMWWMB50Xh7XjcLhvdqsC5YJc1iFUmgaxk19tImInbXsAMss3k5rDKlFFjc6VzFmPihUOKXO9djvfax23EZS8D0/LPZ9/OInKLxljxh4uzwY1y/CYv6uJLznE+SDbIbt708gzbWweOldeOG7BJCNBbUCxfz7CgXcxTYwzLfytEJ7I+Gw7+MI1LyrnzHgUMQqeAD4Z6JgDmKArt4gqKU0FuVSq4QLk9sAWHA5CoPiG1gfF49WKIW6SutizUMdBJ9ZvN99WeSi8bnKMXM9gbPg+yzJ8LxnTjfys+qJN0lJMbuBMffZB8ycPI6h9yKgY6BxZKwJ7G5Lhr6HgK5xwWL+bhmwjV+wmqhFfwOL4865oa2vzGDLj9cK3XTBYW7/thevsZUZcqNkxGgxAGbBMgTcgkMMsQHBFLVXHs9Uqfd9xoTmAeBPQtTbGccaSfS1O16hFGqbLSqMcdhzi/gzMcGHxSPAzDG//9dhCXDcG1Nfj2QEPdbzxpOaeV2gMdftC8kKtZDB3zOhuCtDY7bY/aOQ1gxm8PvLQqFvofG4c+GAkr91sfGgp8CYm/4BqsICPwP2z4nQCa32A2KuvBKpEZv8DPnKMsJsWQ4EvmaqFpCABwyx3RQgKwFk11Sna3fGZU02AH49S7VdtVknw/t6vEIplM/KLCzrZS3ml0wxupmBwkt9h+Z8frSsrJA1bQctzGAka5CqPeGxf/BGKH8IlRj+gEJv4gns42xwzH/dhNK3m4fhVyWwrkXQmKsfCAeSNaYcK4ub+TU05g47wez81MPAq/fVCQnlQDG3OINQQI687GPQ7boSapQKgltMUevYeQb5lIB6l8rjLidUyVrIyFAtCNx0h1pvx7NW+JYQC70k/U9lEh70cSzmABmxPx4hTDIqsQGLIgsK/vrl/cN/FDxrd8dtQ9iMsVXHfHwyxceIChVI3XXwmAV63Upuea65VvWwij8S4NcUYF44yyXP3XCwnxV8QoDXZ4Njnn4uAUBEmS6sMG5UzdqWg2Oe2iMJQITljrnK8AUfE7RC78Jif4v1yBR8k/hLNsMesJ6QSzoEguudUqnSOAZ53guFvgXAo0+okfc1ozPkPgTev0uhqDYMXT0pScMsnGi9OYhNAyzAMos6wFYm+t/jUCnKyJYplc/3rFy5ctPpkR5G+F1SuEA+fL4CzNyl9SdyireJZCU7eyFFdVKBOefSTjnVRs1nJfcvg0T/VQHmAdvSvVLMP97KYKWRo1QFmAXBURvlPJ8gPbYNYAUFahpp9mNYzPz9SBMN83YHDwNPbEjY0d/ZIDh+tTJJ73oYZOIaAjsCAo8+oULJpowP9QLBMX8qU6oJa2c0qIVSwMuEMFMAo2kCHLK4A55HNepbDiXs3yelh/mVYOaDzd6cYp87s/a0ZEXvXyfQewcowcxLF7ctaZ9JExpMZEX9Iwl00loVmLnPO3OX2enFT9BKH6Sw6tg9lxg6q8DM1aucHWIf19jl23NZzVTSrbkHGvOiMhEoJAzczeATKxF+9BkMZqFSYzXO9GOg1pYnwOch8JW+8F7IzNMZI7oBgrlnQI5UQ2x0O9YPS6ELtTD0UvVpRUagJ4B4i/w3kI2q9TFcS0hxsTlUYWZf5bfqv1kt6+XCTs09/WVHPyvr70HAz6ny0gtfvj93Y8TLZe1988higdfH6lYh4DvGqcHM/lttZo7snVQ0d6xQq0c1yWYEsaNjkWq8tPt3P2/t3zjaS0QJU0qvKfj3jez1X8UmHhJAVnaBqR1y7wHHXHvxH6Zi7vFfxTP8mB9IByEXgHB8aBS8SVV8DLRpOKSPQPCAw9AGDmCcZmTA4IxUNzxLjvieVUTAS1UecuHkpMRO//p3sUH9psXeCe9iwl9varCWk+rhTdR5WZ+grHrH3Usj/ax6awK/TaGXjVy6+9b0SB+rPjwEGo33qFJkV7mUQ/3u/VS5e4ogwmiiR3c9yuDaMYI0bAqc8Ji5+run1PGWaD2fVYzZR1qgtEQgzB1/MGGFT57PUAeUJ8iZ5UAw/1b4CQZpyOsMHgydA8I8vASwzPoDWE+nh10YvsE5a96ZjsKifxuUo7AWRso3kNS/0141LDsnwQtIQGXlkNw/jeDXUQtl/OiaERjXm/Q8SgVmni42R80kBTIn7CnHaib2IE3QTDDMh3p54YT3qsdwDxBsa8sD4XYHvFCSBu5nvEhwGQpzk6OAnk+QVIHMiiLAUuhCL5TCjtdJ8ndpXD9/PZJ0wp9bBZYdDxRJR0mXjFPGD4Rh/xgjUH0IKbjjGyMggDVJQXOdw+XurD9B5U3SdR01mLl2i5l9TUDJw64tjGFVNxwlbZhP4DAf2hqQABhTyvRhwGITCXieIAKEudGbXhBnJ7KKgKKfgWGe94cJI89yb2k5VhaDZ8UvDBf2ZG01rR/tEJ5XA0iwCgTYxtSv7zdI7dYTjpY7xq+/uL6kpFUHCVQDEEtKZg13tKhAPny07vyWO5b0PTBbkZdu6PzZmztMaWE7/5zTSABZ4fmnSB/UtTog5pxLJaQl/fAgkSEvmgSNRoFhvlIjQVZWxausJiBK98FhrlentDT3yO9yWWEM5LwnUlRAGMrrlpc35afXRA/ja9eiNezzxg5wyyrxBchHlSIN0fQRhOX72nMNI0XfE2jae5cUHTLa0SJLjminuTqk85G11SnigC+6/Hzgbt9lNrmXVStRdclvv0/3sOLdd5BO6FQGJGYePep2pv0KP8Ee1nrGsDfsJfAlc+EwJ3Y4EG0/U1SXQZGsKiTaAonZ07lYNQnJ4/sJZFYbA5bSnyqQncKm//1siOcE8Zx24znda/q9ZKBZcwF48TesGgGSPpl+JN5LOGSApkYTnr9pzt+WlF2uu8umKjSinKNFNWO01oz0fqq9WkVZW1DQvXKRr6SkbGAshw8hvdAbfljMnNjz/UpD3bZElX+4SuD1MXTPXVJwECRm9onyzXnaN9wmc0WvR/tZYVDmAlAv7bJtdVqCTeaKYVZdvzCGlUehawXImcKm/+VcCLZsfJ06KpYrafG8oqlNsYm8PbmjlQNErCoBvmEdzHxkeAYlEaJJC/Q2hhQWbNJbh3BS99Q4R4vm+jQmNtGrOTrRFAecfwkh3VAouCImduzWZtSWMqsPzKwz6lKL0dms5HJSMa8crCJ65v/URWyOa0dSY2Njlx/5dlNTgcLyt7fHghIEr6EV8Zkgc/God48Ui439sf6oQetu5TJUgXxpA3adXrnENlH0CqWg8+N5uhhfpScVq4nvkJ++V0x/3sMJxgP2DSDFKhQaD2kBUQ2XoYl/m3CN6qCz+qSy2UxnNwISQCoXrB5xjhZN9murWxJp37XYoGQfIbCYUDMlUGxDah5QQMEh4Z3RoB37VVDVP5IWYcdSegq7Qiloxfg6bcVzaoivJw/iq5RantOxpstkHF+uqDV9KkkM5blHuXXk0yHM7mSe6SStWgFOL0sTKO2ggRHkPiZsXfP0dZrUNi/pS6iURWqXuOhoUQ1dPUgiIxgbY0QEIaFDSUvudXp63a2I9zx+2WmECKVlaKMBaWBX8rgVSoHah/rU4/8eS43QmOHAEne0SxB2D8I/QrAd4K5V8AOzNmbO9huVwV0J3yxRLl01I9W9s3V17/kEIdWPDnC0SCinpwdJZAx3tjcelXeQnijrLx11DiFV1wt09EIJFRKbzaeJ3Zk6YCn5jlqhFCh+sK//SrJ6C5DwmvpANL6LIYlPJZTde/RUxVSO6IieBrtI/fRcR4sG+jX0VjgZxTv3DIandRTpijLn6adDFqm7GLuebmQoVg+1y5MWTgMzOVPoEKh+MK//CZozLdbKO3UNiCBrLyFt9tOQZyahWMyjoQZewrDhAEeLznm0I1QwyTiasQOMhKBwJMFGhqK66ea7cFI4ryVu5a4TNvS+DvyWzU56YCl04VUoBYbrKvSC6I0uBsPzQQjhPdOnmwFzCcmHGbrxCeUIyRKCMkeLZiXqxSfa2WQsy39hHOaVJK1R0mK91PKS0jV9mAngSsKH+mngNOlCmvqjVSgFhuuFWDvz3hHoRqJjf0K9oSCsF0EgjdDcKMjXiyByl9Ds28XRoj8idRInVisZzZDWHmMQaZk0Ao8OUapHH/5QUv1dzAYSRhSG3mzSRqdXLrG9A1KFUmC6utMPorGCN4Yh8XQUIb93tE6uliJE7/ykkysFz9oRoisO4Xbx7xOGg6pV10e9FzIzGdAzlY1Ai2lkAKjnAF1kTCDlk37C613CiT5D7oFXHywlqTi16xCYromwlkb9mGMM/mpM+E/qpo/8EEI1SrDJr43BUwjVFz9BX8fMdZsMCBX6xnRPFzemkCFNSr2ouy49SUWM6L2Weqh3ihCcsQGrOSZW9KsHswVRpJFmiwojhVWMCqXAeJ22nhANaZatv/kVTdJisUQ95DwkdPeN00NiDZOQ9V7zo+WrSoaE3KP8OvD97CajaskR87TmqpJARoG6ntTBk8JPMEKxYSJOe7yEFr0Zj9emcNIJJwwZCBVKgfFymw3U6QpRtZOaG/BuMuny8UQdNJlBCJf+SwcH0wjhkYISpHyzyKAQvTkOv/ZHyci+OVpfLfaSojiR93Q2dq7mJiE5wYXRYi8hRiWeYbXHTXrZ98dAp1AKzNf3ss6m/6Qx/6NjpNGABLT2YZcrlHMTyt6Z8dh5evxT/tQklKd9jVKM9bzxZFzoRGfsWgwhYxturYx2ehK8rkTKIkW0uTtuE9MIz54x+IwyCTW6vhYlgR5KRasHHiU2hVJgvrqv0xqi22t1tX0zaXbnItzOVyO0G6/FTfDRCkVYu5fn4hOXTkaGvEK5XMxyrJVCxrfsoBj9tJzsJcNBWVUEOl7+S5mE6crayPiKUdHiRCFtEMp4k/QzjJv66DvDRc4UOgQG7IpYe8ev1dH24qRf1+l4vCI/8hLi3lhBCK/cUBchXv48NgJ/XzI2RCOm4tXiOhni0lVy9VI91UUq40VUU/Aaq0U3Cdn1+1H5piHhR9TwGTa7K5CGOCENRaVQCgwYwFrW4ZtPPJrZXpz0POMJUv490YR81zkepDpYcgThnpS6ARWhUjRBmqEnMp9G4tSlLRnmY1Xi9TE9NonUxozCj+RiFB8aReieEHgR6TSDtECltuPSxkVain11B7MUOhEplAIDBhB5bi0iCsiRzS7qI2ZbGul7WCeMOqeRBh9/j1HT24R/yct+NDyrkghUX00RDWmWjU/iqAgy0tMGxelhbVU3qY4aUaE38YJz6Pi/WkEYP58gX2HhGRRCmiB6ux0e1RuSzbpgL1X2eBRKgQk7YNbmwk+w5dP10E6oUIq07t06HRtRvvGkyWGdsKn+tpe02P8vJFoepaKEUUJbRNU6YFO3NxntiNiD6MU82EkIIke0eSEuw0sQ1r0yUJi+kmzGjArkw/d4cPD1SCZt8T1jIWcKHQITBpCwYn0iMldui0ev0VMXaT989SJM+r3pJW2aE85jMvppFGlzZFMEPJcmEbTxGiMaew+TJsfJiHsn/O7HrL215ZcRiuiROaEyHmtHEuLVhqsX0zqZtEJ0ZioG906RPfWxNZeCQ6EUGLGlsGZPih2OWZd/LU/G0Du3ExZCpduk2eOdsWha1U069U74SbUh/anoYfTUGlGJG1gkryTDfuxIClK5D86GE5L4EdHd4Tj8NYxwd88UKIqdbEz2RI5owiHVGt0k++qDzxyFQikwYlsZO23RukVEQ4808qM0YFMlNxnIEt8JoHoZlyqQhj+ZfVE91yYrFOl31xOPQn0mu8nGUiDe0xxR3z256nlOliBD7z2+LQMdT+eKEYSnFojSPnSpFvOgP+F/7Eu/QkNGkn3RI/NsI5V+OmuS7rbwYGeUNEwhUCgFZsyhcWE9Lz1zoQeZyG0PM8lolrK2fHe1KqfmkaYnlWmk1uj3T5CeV4R1UWT+mIAEkM1lDRHRsl1X1Hr2mSVHkPHPEpvtw0hEYr4vc4JQ1QTRiZ9bqnTldEnSY/+/VElp6yVNEZnDnnjU8HRYSfbXCEtT19QrlAIzBvgH1vfoqnv6oJHSZlg4GdP1zcqpIirvtfKk9WqfTVelXa3+pPHws19dhDfxQAjZ8cVPULWOpYOcgQKRaYXaU1sVn+XuZs9wchDDb79THYX7b70RQdhuTpe6AxEi780PL6ohCC+uaZI+b36twhdbk8juZ9JlBuRIJIhoyr92gddu1AySuTNdZmlkWEo+plqhFJgxgLs9atxLq9UQXC6n3LOvns4gI+sd27oevCE/PyYDuPG/fgEv5YNdbtJ95ntfCkKQBMrlsWTfcLV06yr4Psvib+Aldnha6BsTOZZDz3X7RqkNHZYXd5PBd6VXERRCG/fh2RDS7OavBBBWzODjZADd47fVhpTxXY8QMozDPlKh20qtQikwZC6MYgM4ZWuV8y5FsoU++81yx35CRrj3uQf34bS/3OsEGcbrh9/qA+ebbgNHkEF07xQqfJ0LIqPb3OcThOzuh/DQKBCRe9fPTbIBVb9cNYEcUe/Ggb8IXgs0Fap/WmOjmxxDd9qRe4lQsiuPSg8nHZf88RCcTqlDyChG3c6vDqPLW3MzyVB6koCUKpQCQwawrrUJeGnIxlnfrluUDandwlY1+meRgTarVWzTKVFWxtpBs2aQ4dxRVbDppwxZMV/Mttwx5b1kLENKNP+yo0tGxtdhf0SRRDeI2wbipREN32+xX57rVput08ihTTgulGu1NhLMgEZzRM2tmUcO5oufoEe31O0iq/3g5bsySeMV6vQT6PJivi+zgwzmjIq/dPdI6bPux74mGc6LTKFCKTBkAPFzYbMYUu32U6uuX3xvYrkY+3m6fNGh1c8V1xd+gpExT+r65pZWNyYOsC3uQofZzSvNMMmwmjtGCuVmd+i4wbb4gzdaLXlzRBIZ1ahTYrPNrPL6wonlfEUTIwj0e3CtV183SR7CEPsbjCKeOP5ng5Mdv7FHbp/zm95/44XMHE4Ocsmbq9+fI8rV8Rt7xbfvOO/Slln9S5HjKhJjzXODFnQSlNjWrt86sTliS0whA1hybq1DLvt1+WRJzSwypmH9Bw56ciHeFl/7qXOa/1CSjGkv95cycqbQITBlgIezscy8Xn5nevpdsdEvXR0bGxs7Ob/hH2ldr7vJMUw+dmplpfz81RXz8xvWrHAiiwxz1ok1NRvm5/danZ9/d+WpY2FkoEOmTJlmyRFTpkRPIqAjQKwxIi8bkIAdj3dVyi/yw/T0XXsnkaOet6Lvrh/yX/6H9PSaa65nkeMccn1NzZH5+b0O5+eP3FXwrF2pKDKWIWmJ725bOHF/9ksEamT7lI7nW8wJtdyxJQo/wcj4Jq8oWD3SG+bn5+e/mb6rWrRJhlaauqZKoRSYMgj+rTMXgX6LgyhtYAJdZ5ET25PcT41CKTBlANf79auBKKct34Ug0F1BR4z2MG7qo70kw6lQKAWmDCBycJy+fA7CNxQ86sVIgZR87ToExswJP8NpzA0g3AomheuTrlAKjBmENc8nnUmoBGFecCm8Z0lWKAXGDOBaj5zOvB/CnGBT2kqhI6kKpcCYAaR1x+nMQxjimGBTeDS3lUTtOgTmzIGxnNY8AUSl4FP4ay8laQqlwJwBfMLpzQ1AWHJEMCq81GQplAJzBljjg6Y5TYQQ7w5OhT8mOQqlwJydfeyPRwhzevN1hvgTBataK4X3ydCuQ2DOpvNGnD5aHifLHQOiSvAqvMgTrr5CKTBnAAnHxOmirl5f+D9B6XsQbwezwrNaTHUVSoE52+Pn4TTRgm8SB+Uw82KMpvlA7A1uhSutKyiFkeoplAJz1g00D+W0UPeE7/380phpCG1hiOXMYFf4qbapOtp1CMxZNyfD6aDLjlTnl/8NoYMgxCZSMKy7MrmqK5QCgwaNGZwGuvORQOWiFVRWQ+cog4wNjoWv686qqlAKDBrgeZz2mXmgKdsquIzO9zB6B8vC855o1bTrEBi0pXC654hBOWzHgu+zILOeQV6hYForr4PseKuiUArMWTdOeDKnd3rTW/jZroL8MFxawGgdXAufsxT6Wq1QCswZQOQsOK1z2ZalbHfBJlQe+2HsCraFVySF5lYplAJzBpAyA07nTLsUzxIFWjoizyWGqQyynDv4Fh6eFMparl2HwJzN9FE5fTPzwBcseX6BfDgeqxnmHArO9Un/t2UKpcCcLfNUOG1zxKAclt/Bi0VZQTGQscG6MD9Z+84plAJzBnCw7NhlOU3TPeGGn0Few+ISw6xnBvPC9S/UGe06BOZs+rGJvJyueZuh+q3nJeNw1w/kNAX7ejHbFIZhoRSYs99aFqdtmk2hcHxNDI4JQgzTtyL4F75CKVSFslOkFBgzgGQXC+J0Tut548Fw3GP1khYy0AUUHGynVy6xJXq9sen/OGstMGYAZ93RTTo61/kvrdM9Ggw/+0S5UQxV6NBgYXiQr77NFs+p1pgd2ydzmqfljoXDkQWrh2JH/FAEr83gYXiLrljHFF+npHhOVCO2x2NvzemeIdPhcGR/lbxVGGwsBRu7C/GcJgzYKJzJLDkN1HreeECc2FadpMUMViC7go/hTf/6Lbzx1eSl8XLCn8emAZbTQc2rgNhvbXlTkWMLGW4NCla2YjU5WrGazBstgCtONE6cJlrcD4j5Xkkl9n3DcPdnBS/DTb+feLo0WG7j+3PjtNFPQfH8m/AyP/Yz4DEU7OyU4zlNGSqAiy505TTSHRmg2P/LMmBzBfkMWZDrCn6Gmz6VUOXr1eJ4TiQDBZD++n1zWumvsJgj/wwHdMqqHoa9lYKlbfq9pBjP6bdxmsjNcZrpP5K4tcCYl6a6gKSJOprNsM+bwdMwVywnrvGcRozSd/dUx2mnFQQQGrMgcHqavPA3hjN0vxWKgq2t/PoprPF1iozntGyMAOL/tm9ORxUqwGP2nXx7iIyQH34Zx/AXU3C2Q3nuUe6K1cqpeE54I7TH09pdTk8Nv6oAMwu0q6FWb0yh32lsj4ijR6zthThWUVBSIB8erA3z0NYPCpavV4vjOe0an24A//BGnLY6I0eJInZJ/nBUjdjYXvkvPWfV9b91mOhhVStSsLc7Oo14TrtGZ073Dbg+p7O+oQ6i35vB3zDvaHleLYjn6YqxmdO3uydDVU5zfUd7OccoeNymX0/s8TwNjOfUb2QA7rijXSo7dllOe80SeHVXlYLN/d2K708OVSzT53hONNMC2ORLPBSnw5YS+PX2FQWr23SVRMvzalY8pymDssenuHetOU12oyCms3qTgtdhjn2tw/zi8Zyex3PaNyMA549uxZxGW8mnr3hRXSgY3sG/8zxnRZ44xdfpfTwniukAuP6y82vN6bU/6uswBdM71O89zBdfTb3eZITmAuA2wBfuyKPz4fTbn3UlcFIwvrdzpOXr6Z14TuMmAuD0tM40dtayc3ruKD3NSwrOZ8uWP7MiG19Nw+M5va3Ik1WTMNNzHcc3cvquWUtHuydRcMDly7vEu6/Ik2t9/pYB6BtgmQsL3XFoMR9O7/1HEtdKPwK5NAUbPKT8JCa+nJiOKr6a3Cpfp/oRahtA0mx/8xk62TcarTkN2BylG1F5jSm44SE/fa9Y+WrVqvzJFBzP6WQ8T97Ec2qMr9L0zWoUwL1TBfzT327tcSyL04dT/VoR+moaBVvc9KnEP7SnVjUqlit28fXUfRfK8zSxPK8WVOTJ2XhON7rsssv4Or06BRX+v//8//L/8+9XoJm+r8BtNuCOVu6EP3fCLzyuE+773OfG6cfWSsnWSHIeBSP+f//nf3X/f13+f//7f/cY+8uIm9Obf4jTxuxwepWyI3brIfsIvXrZSR10UH4XvZpZ7zU/epbt6hB6lbPpAj9u8TNNetWzky5hNnwvvSraueOwEihCOTe9SlpLfpusw+nT0vQqaleK8uGzO51eXa23135cyscm0auunbTqIh5dfg2hV2X7H/LfOqnzcRBkp/5T/tSkV22b9WeKcgL93kMvvapb90PBZZdK7XqMoFeBW/gJFtvEr0a84MzZcHq1uNXeb5INrc/sSln06nITxGarJfgAxrIVWbazZSrQq9O9Xqm+2MSDPjkC+ftR7wXkSHqVu1lnzlru2PcFO19fK3haeXTKS7sIytqnCLLOi3K9NWqmZbOfej5B6D/6P9NL;fontColor=#FFFFFF;" vertex="1" parent="1">
                    <mxGeometry x="530" y="87.50999999999999" width="210" height="32.49" as="geometry"/>
                </mxCell>
                <mxCell id="28" style="edgeStyle=none;html=1;strokeWidth=2;" edge="1" parent="1">
                    <mxGeometry relative="1" as="geometry">
                        <mxPoint x="440" y="250" as="sourcePoint"/>
                        <mxPoint x="250" y="250" as="targetPoint"/>
                    </mxGeometry>
                </mxCell>
                <mxCell id="29" style="edgeStyle=none;html=1;strokeWidth=2;" edge="1" parent="1">
                    <mxGeometry relative="1" as="geometry">
                        <mxPoint x="250" y="220" as="sourcePoint"/>
                        <mxPoint x="440" y="220" as="targetPoint"/>
                    </mxGeometry>
                </mxCell>
                <mxCell id="31" value="" style="aspect=fixed;html=1;points=[];align=center;image;fontSize=12;image=img/lib/azure2/app_services/API_Management_Services.svg;fillColor=none;" vertex="1" parent="1">
                    <mxGeometry x="160" y="410" width="86.67" height="80" as="geometry"/>
                </mxCell>
                <mxCell id="33" style="edgeStyle=none;html=1;entryX=0.375;entryY=1.009;entryDx=0;entryDy=0;entryPerimeter=0;strokeWidth=2;" edge="1" parent="1" target="12">
                    <mxGeometry relative="1" as="geometry">
                        <mxPoint x="180" y="459.98" as="targetPoint"/>
                        <mxPoint x="190" y="390" as="sourcePoint"/>
                    </mxGeometry>
                </mxCell>
                <mxCell id="34" value="" style="sketch=0;pointerEvents=1;shadow=0;dashed=0;html=1;strokeColor=none;fillColor=#505050;labelPosition=center;verticalLabelPosition=bottom;verticalAlign=top;outlineConnect=0;align=center;shape=mxgraph.office.security.token;" vertex="1" parent="1">
                    <mxGeometry x="190" y="333" width="30" height="27" as="geometry"/>
                </mxCell>
                <mxCell id="41" value="" style="sketch=0;pointerEvents=1;shadow=0;dashed=0;html=1;strokeColor=none;fillColor=#E6E6E6;aspect=fixed;labelPosition=center;verticalLabelPosition=bottom;verticalAlign=top;align=center;outlineConnect=0;shape=mxgraph.vvd.vpn;fontColor=#FFFFFF;" vertex="1" parent="1">
                    <mxGeometry x="180.5" y="70" width="50" height="50" as="geometry"/>
                </mxCell>
                <mxCell id="43" value="Prompt request" style="text;html=1;align=center;verticalAlign=middle;resizable=0;points=[];autosize=1;strokeColor=none;fillColor=none;" vertex="1" parent="1">
                    <mxGeometry x="585" y="195" width="110" height="30" as="geometry"/>
                </mxCell>
                <mxCell id="2" value="" style="editableCssRules=.*;shape=image;verticalLabelPosition=bottom;labelBackgroundColor=#ffffff;verticalAlign=top;aspect=fixed;imageAspect=0;image=data:image/svg+xml,PHN2ZyB4bWxucz0iaHR0cDovL3d3dy53My5vcmcvMjAwMC9zdmciIHhtbG5zOnY9Imh0dHBzOi8vdmVjdGEuaW8vbmFubyIgd2lkdGg9IjIwIiBoZWlnaHQ9IjIwIiB2aWV3Qm94PSIwIDAgMjAgMjAiPiYjeGE7CTxzdHlsZSB0eXBlPSJ0ZXh0L2NzcyI+JiN4YTsJLnN0MHtmaWxsOiM0Mjg1ZjQ7fSYjeGE7CS5zdDF7ZmlsbDojNjY5ZGY2O30mI3hhOwkuc3Qye2ZpbGw6I2FlY2JmYTt9JiN4YTsJPC9zdHlsZT4mI3hhOwk8cGF0aCBjbGFzcz0ic3QyIiBkPSJNNyA3aDZ2Nkg3eiIvPiYjeGE7CTxwYXRoIGNsYXNzPSJzdDEiIGQ9Ik05IDBoMnY0SDl6TTUgMGgydjRINXptOCAwaDJ2NGgtMnoiLz4mI3hhOwk8cGF0aCBjbGFzcz0ic3QwIiBkPSJNOSAxNmgydjRIOXptLTQgMGgydjRINXptOCAwaDJ2NGgtMnptMy01VjloNHYyem0wIDR2LTJoNHYyem0wLThWNWg0djJ6Ii8+JiN4YTsJPHBhdGggY2xhc3M9InN0MSIgZD0iTTAgMTFWOWg0djJ6bTAgNHYtMmg0djJ6bTAtOFY1aDR2MnoiLz4mI3hhOwk8cGF0aCBjbGFzcz0ic3QyIiBkPSJNMyAzdjE0aDE0VjN6bTEyIDEySDVWNWgxMHoiLz4mI3hhOwk8cGF0aCBjbGFzcz0ic3QxIiBkPSJNMTAgMTBsLTMgM2g2eiIvPiYjeGE7CTxwYXRoIGNsYXNzPSJzdDAiIGQ9Ik0xMyA3bC0zIDMgMyAzeiIvPiYjeGE7PC9zdmc+;" vertex="1" parent="1">
                    <mxGeometry x="459.09" y="206.75" width="61.82" height="61.82" as="geometry"/>
                </mxCell>
                <mxCell id="3" value="Compute Engine&lt;br&gt;RHEL 8.8" style="text;html=1;align=center;verticalAlign=middle;resizable=0;points=[];autosize=1;strokeColor=none;fillColor=none;" vertex="1" parent="1">
                    <mxGeometry x="435" y="268.57142857142856" width="110" height="40" as="geometry"/>
                </mxCell>
                <mxCell id="37" value="Vertex AI" style="sketch=0;html=1;verticalAlign=top;labelPosition=center;verticalLabelPosition=bottom;align=center;spacingTop=-6;fontSize=11;fontStyle=1;fontColor=#FFFFFF;shape=image;aspect=fixed;imageAspect=0;image=data:image/svg+xml,PHN2ZyB4bWxucz0iaHR0cDovL3d3dy53My5vcmcvMjAwMC9zdmciIGlkPSJzdmc1IiB2ZXJzaW9uPSIxLjEiIHZpZXdCb3g9IjAgMCAyMzkuNzA4MjUgMjc0Ljg2MzI4IiBoZWlnaHQ9IjI3NC44NjMyOG1tIiB3aWR0aD0iMjM5LjcwODI1bW0iPiYjeGE7ICAmI3hhOyAgPGRlZnMgaWQ9ImRlZnMyIi8+JiN4YTsgIDxnIHRyYW5zZm9ybT0idHJhbnNsYXRlKC02Ni42ODYzNjEsNjAuMjU5NzY2KSIgaWQ9ImxheWVyMSI+JiN4YTsgICAgPGcgc3R5bGU9Im9wYWNpdHk6MC45OSIgaWQ9InBhdGg4NjkiLz4mI3hhOyAgICA8ZyBzdHlsZT0ib3BhY2l0eTowLjk5IiBpZD0icGF0aDg2OS0yIi8+JiN4YTsgICAgPGcgc3R5bGU9Im9wYWNpdHk6MC45OSIgaWQ9InBhdGg4NjktMyIvPiYjeGE7ICAgIDxnIHN0eWxlPSJvcGFjaXR5OjAuOTkiIGlkPSJwYXRoODY5LTEiLz4mI3hhOyAgICA8ZyBzdHlsZT0ib3BhY2l0eTowLjk5IiBpZD0icGF0aDg2OS04Ii8+JiN4YTsgICAgPGcgc3R5bGU9Im9wYWNpdHk6MC45OSIgaWQ9InBhdGg4NzEiPiYjeGE7ICAgICAgPHBhdGggaWQ9InBhdGgzMzU3IiBkPSJtIDc3LjE4Njc3NSwxMTAuODgyNTIgOTQuMjM5Njk1LDY5Ljc0NTc1IiBzdHlsZT0iY29sb3I6IzAwMDAwMDtmaWxsOiMwMDgwMDA7c3Ryb2tlLXdpZHRoOjIxO3N0cm9rZS1saW5lY2FwOnJvdW5kOy1pbmtzY2FwZS1zdHJva2U6bm9uZSIvPiYjeGE7ICAgIDwvZz4mI3hhOyAgICA8ZyBzdHlsZT0ib3BhY2l0eTowLjk5IiBpZD0icGF0aDg3MyIvPiYjeGE7ICAgIDxwYXRoIGQ9Im0gMTUzLjA4MTIsMTA5LjAzNTY4IGMgMCw2LjEyMDQ3IC00Ljk2MTYyLDExLjA4MjA5IC0xMS4wODIwOSwxMS4wODIwOSAtNi4xMjA0NywwIC0xMS4wODIwOCwtNC45NjE2MiAtMTEuMDgyMDgsLTExLjA4MjA5IDAsLTYuMTIwNDYgNC45NjE2MiwtMTEuMDgyMDgyIDExLjA4MjA4LC0xMS4wODIwODcgNi4xMjA0NywtMTBlLTcgMTEuMDgyMDksNC45NjE2MTcgMTEuMDgyMDksMTEuMDgyMDg3IHogbSAwLC05Mi41MTMzODEgYyAwLDYuMTIwNDY5IC00Ljk2MTYyLDExLjA4MjA5IC0xMS4wODIwOSwxMS4wODIwODkgLTYuMTIwNDcsLTVlLTYgLTExLjA4MjA4LC00Ljk2MTYyNCAtMTEuMDgyMDgsLTExLjA4MjA4OSAwLC02LjEyMDQ2NSA0Ljk2MTYxLC0xMS4wODIwODQ2IDExLjA4MjA4LC0xMS4wODIwODk2IDYuMTIwNDcsLTZlLTcgMTEuMDgyMDksNC45NjE2MjA2IDExLjA4MjA5LDExLjA4MjA4OTYgeiBtIDAsLTMyLjkyMTY4MyBjIDAsNi4xMjA0NjkgLTQuOTYxNjIsMTEuMDgyMDkwNSAtMTEuMDgyMDksMTEuMDgyMDg5OSAtNi4xMjA0NywtNWUtNiAtMTEuMDgyMDgsLTQuOTYxNjIzOSAtMTEuMDgyMDgsLTExLjA4MjA4OTkgMCwtNi4xMjA0NjUgNC45NjE2MSwtMTEuMDgyMDg0IDExLjA4MjA4LC0xMS4wODIwODkgNi4xMjA0NywtMTBlLTcgMTEuMDgyMDksNC45NjE2MiAxMS4wODIwOSwxMS4wODIwODkgeiBNIDEwOC43NDE4MSw3Ni43MTgwMSBjIDAsNi4xMjA0NjkgLTQuOTYxNjIsMTEuMDgyMDg5IC0xMS4wODIwODksMTEuMDgyMDg5IC02LjEyMDQ2OSwwIC0xMS4wODIwODksLTQuOTYxNjIgLTExLjA4MjA4OSwtMTEuMDgyMDg5IDAsLTYuMTIwNDY5IDQuOTYxNjIsLTExLjA4MjA4OSAxMS4wODIwODksLTExLjA4MjA4OSA2LjEyMDQ2OSwwIDExLjA4MjA4OSw0Ljk2MTYyIDExLjA4MjA4OSwxMS4wODIwODkgeiBtIDAsLTMyLjY4MDYyNiBjIDAsNi4xMjA0NjkgLTQuOTYxNjIsMTEuMDgyMDg5IC0xMS4wODIwODksMTEuMDgyMDg5IC02LjEyMDQ2OSwwIC0xMS4wODIwODksLTQuOTYxNjIgLTExLjA4MjA4OSwtMTEuMDgyMDg5IDAsLTYuMTIwNDY5IDQuOTYxNjIsLTExLjA4MjA4OSAxMS4wODIwODksLTExLjA4MjA4OSA2LjEyMDQ2OSwwIDExLjA4MjA4OSw0Ljk2MTYyIDExLjA4MjA4OSwxMS4wODIwODkgeiBtIDAsLTMyLjY3ODI0MyBjIDAsNi4xMjA0NjkgLTQuOTYxNjIsMTEuMDgyMDkgLTExLjA4MjA4OSwxMS4wODIwOSAtNi4xMjA0NjksMCAtMTEuMDgyMDksLTQuOTYxNjIxIC0xMS4wODIwODksLTExLjA4MjA5IDAsLTYuMTIwNDY4OCA0Ljk2MTYyLC0xMS4wODIwODkwNyAxMS4wODIwODksLTExLjA4MjA4OTA3IDYuMTIwNDY5LDAgMTEuMDgyMDg5LDQuOTYxNjIwMjcgMTEuMDgyMDg5LDExLjA4MjA4OTA3IHogTSAxNDIsMzcuNzc5Mjk3IGMgLTUuNzk4OTksMCAtMTAuNSw0LjcwMTAxIC0xMC41LDEwLjUgdiAyOC45OTQxNCBjIDAsNS43OTg5OSA0LjcwMTAxLDEwLjUgMTAuNSwxMC41IDUuNzk4OTksMCAxMC41LC00LjcwMTAxIDEwLjUsLTEwLjUgdiAtMjguOTk0MTQgYyAwLC01Ljc5ODk5IC00LjcwMTAxLC0xMC41IC0xMC41LC0xMC41IHogbSAtOC45ZS00LDEwLjUwMDM3NyBWIDc3LjI3MzY5MSBNIDk3LjY2MDE1NiwtNjAuMjU5NzY2IGMgLTUuNzk4OTksMCAtMTAuNSw0LjcwMTAxIC0xMC41LDEwLjUgdiAyOC45OTQxNDEgYyAwLDUuNzk4OTkgNC43MDEwMSwxMC41IDEwLjUsMTAuNSA1Ljc5ODk5NCwyZS02IDEwLjUwMDAwNCwtNC43MDEwMDkgMTAuNTAwMDA0LC0xMC41IHYgLTI4Ljk5NDE0MSBjIDAsLTUuNzk4OTkxIC00LjcwMTAxLC0xMC41MDAwMDIgLTEwLjUwMDAwNCwtMTAuNSB6IG0gLTQuMzVlLTQsMTAuNDk5NzY1IHYgMjguOTk0MDE3IE0gNzUuNjM0NzY2LDEwMC40OTgwNSBjIC0yLjc1NDE5MSwwLjQxMTQ4IC01LjIzMjExOSwxLjkwMDIxIC02Ljg4ODY3Miw0LjEzODY3IC0zLjQ0ODg3NCw0LjY2MTU3IC0yLjQ2NjAyNCwxMS4yMzYzNSAyLjE5NTMxMiwxNC42ODU1NSBsIDk0LjIzODI4NCw2OS43NDYwOSAxMi43ODYwNCwtMTYuNjY2NTkgLTk0LjUzMjEzNiwtNjkuOTU4NDEgYyAtMi4yMzg2OTksLTEuNjU3MTYgLTUuMDQ0MTAxLC0yLjM1NjkzIC03Ljc5ODgyOCwtMS45NDUzMSB6IiBzdHlsZT0iY29sb3I6IzAwMDAwMDtvcGFjaXR5OjAuOTk7ZmlsbDojYjVjYmY5O2ZpbGwtb3BhY2l0eToxO3N0cm9rZS13aWR0aDoyMTtzdHJva2UtbGluZWNhcDpyb3VuZDtzdHJva2UtbGluZWpvaW46cm91bmQ7LWlua3NjYXBlLXN0cm9rZTpub25lIiBpZD0icGF0aDE4NDAtNSIvPiYjeGE7ICAgIDxwYXRoIGQ9Im0gMTk3LjM5Mjc2LDE0MS45NzM2NiBjIDAsNi4xMjA0NyAtNC45NjE2MiwxMS4wODIwOSAtMTEuMDgyMDksMTEuMDgyMDkgLTYuMTIwNDcsMCAtMTEuMDgyMDksLTQuOTYxNjIgLTExLjA4MjA5LC0xMS4wODIwOSAwLC02LjEyMDQ3IDQuOTYxNjIsLTExLjA4MjA5IDExLjA4MjA5LC0xMS4wODIwOSA2LjEyMDQ3LDAgMTEuMDgyMDksNC45NjE2MiAxMS4wODIwOSwxMS4wODIwOSB6IG0gMCwtOTIuNzI1NTg2IGMgMCw2LjEyMDQ2OSAtNC45NjE2MiwxMS4wODIwOSAtMTEuMDgyMDksMTEuMDgyMDg5IC02LjEyMDQ3LDFlLTYgLTExLjA4MjA5LC00Ljk2MTYyIC0xMS4wODIwOSwtMTEuMDgyMDg5IDAsLTYuMTIwNDcgNC45NjE2MiwtMTEuMDgyMDkxIDExLjA4MjA5LC0xMS4wODIwOSA2LjEyMDQ3LC0xZS02IDExLjA4MjA5LDQuOTYxNjIgMTEuMDgyMDksMTEuMDgyMDkgeiBtIDAsLTMyLjg1NDQ1OCBjIDAsNi4xMjA0NjkgLTQuOTYxNjIsMTEuMDgyMDkgLTExLjA4MjA5LDExLjA4MjA4OSAtNi4xMjA0NywxMGUtNyAtMTEuMDgyMDksLTQuOTYxNjIgLTExLjA4MjA5LC0xMS4wODIwODkgMCwtNi4xMjA0NjkgNC45NjE2MiwtMTEuMDgyMDkwMyAxMS4wODIwOSwtMTEuMDgyMDg5NyA2LjEyMDQ3LC02ZS03IDExLjA4MjA5LDQuOTYxNjIwNyAxMS4wODIwOSwxMS4wODIwODk3IHogbSAxMDAuMDI5MTEsODQuMDA2Nzc0IGMgLTIuNzU1MTcsLTAuNDA1MDA0IC01LjU1ODM4LDAuMzAxMDcgLTcuNzkyOTYsMS45NjI4OSBsIC05NC43NDYxLDcwLjQzNzUgMTIuNTI5MywxNi44NTM1MiA5NC43NDYwOSwtNzAuNDM3NSBjIDQuNjU0MTIsLTMuNDU5NzggNS42MjIxNSwtMTAuMDM3NDggMi4xNjIxMSwtMTQuNjkxNDEgLTEuNjYxMzYsLTIuMjM1NTMgLTQuMTQyODcsLTMuNzE5MzcgLTYuODk4NDQsLTQuMTI1IHogTSAxODYuMzEwNTUsNzAuODY3MTg3IGMgLTUuNzk4OTksMCAtMTAuNSw0LjcwMTAxIC0xMC41LDEwLjUgdiAyOC45OTQxNDMgYyAwLDUuNzk4OTkgNC43MDEwMSwxMC41IDEwLjUsMTAuNSA1Ljc5ODk5LDAgMTAuNSwtNC43MDEwMSAxMC41LC0xMC41IFYgODEuMzY3MTg3IGMgMCwtNS43OTg5OSAtNC43MDEwMSwtMTAuNSAtMTAuNSwtMTAuNSB6IG0gMS4yZS00LDEwLjUwMDgyNyB2IDI4Ljk5NDAxNiIgc3R5bGU9ImNvbG9yOiMwMDAwMDA7b3BhY2l0eTowLjk5O2ZpbGw6Izc2OWVmNTtmaWxsLW9wYWNpdHk6MTtzdHJva2Utd2lkdGg6MjE7c3Ryb2tlLWxpbmVjYXA6cm91bmQ7c3Ryb2tlLWxpbmVqb2luOnJvdW5kOy1pbmtzY2FwZS1zdHJva2U6bm9uZSIgaWQ9InBhdGgxODQwLTMiLz4mI3hhOyAgICA8cGF0aCBkPSJtIDE4Ni4zNDU3LDE3MC42ODE2NCBjIC0xMi4wNDU3LDAgLTIxLjk2MDkzLDkuOTE1MjQgLTIxLjk2MDkzLDIxLjk2MDk0IDAsMTIuMDQ1NyA5LjkxNTIzLDIxLjk2MDk0IDIxLjk2MDkzLDIxLjk2MDk0IDEyLjA0NTcsMCAyMS45NjA5NCwtOS45MTUyNCAyMS45NjA5NCwtMjEuOTYwOTQgMCwtMTIuMDQ1NyAtOS45MTUyNCwtMjEuOTYwOTQgLTIxLjk2MDk0LC0yMS45NjA5NCB6IG0gMCwxNCBjIDQuNDc5NTUsMCA3Ljk2MDk0LDMuNDgxMzkgNy45NjA5NCw3Ljk2MDk0IDAsNC40Nzk1NSAtMy40ODEzOSw3Ljk2MDk0IC03Ljk2MDk0LDcuOTYwOTQgLTQuNDc5NTQsMCAtNy45NjA5MywtMy40ODEzOSAtNy45NjA5MywtNy45NjA5NCAwLC00LjQ3OTU1IDMuNDgxMzksLTcuOTYwOTQgNy45NjA5MywtNy45NjA5NCB6IE0gMjg2LjE2MTM3LDc2Ljc5MTAwOCBBIDExLjA4MjA4OSwxMS4wODIwODkgMCAwIDEgMjc1LjA3OTI4LDg3Ljg3MzA5NyAxMS4wODIwODksMTEuMDgyMDg5IDAgMCAxIDI2My45OTcyLDc2Ljc5MTAwOCAxMS4wODIwODksMTEuMDgyMDg5IDAgMCAxIDI3NS4wNzkyOCw2NS43MDg5MTkgMTEuMDgyMDg5LDExLjA4MjA4OSAwIDAgMSAyODYuMTYxMzcsNzYuNzkxMDA4IFogbSAwLC0zMy4xNDU0MzUgYSAxMS4wODIwODksMTEuMDgyMDg5IDAgMCAxIC0xMS4wODIwOSwxMS4wODIwODkgMTEuMDgyMDg5LDExLjA4MjA4OSAwIDAgMSAtMTEuMDgyMDgsLTExLjA4MjA4OSAxMS4wODIwODksMTEuMDgyMDg5IDAgMCAxIDExLjA4MjA4LC0xMS4wODIwOSAxMS4wODIwODksMTEuMDgyMDg5IDAgMCAxIDExLjA4MjA5LDExLjA4MjA5IHogbSAwLC05Mi40NjgyMjQgYSAxMS4wODIwODksMTEuMDgyMDg5IDAgMCAxIC0xMS4wODIwOSwxMS4wODIwOSAxMS4wODIwODksMTEuMDgyMDg5IDAgMCAxIC0xMS4wODIwOCwtMTEuMDgyMDkgMTEuMDgyMDg5LDExLjA4MjA4OSAwIDAgMSAxMS4wODIwOCwtMTEuMDgyMDg5IDExLjA4MjA4OSwxMS4wODIwODkgMCAwIDEgMTEuMDgyMDksMTEuMDgyMDg5IHogbSAtNDQuMjEzNjIsMzIuNTU3NzE2IGEgMTEuMDgyMDg5LDExLjA4MjA4OSAwIDAgMSAtMTEuMDgyMDksMTEuMDgyMDg5OSAxMS4wODIwODksMTEuMDgyMDg5IDAgMCAxIC0xMS4wODIwOSwtMTEuMDgyMDg5OSAxMS4wODIwODksMTEuMDgyMDg5IDAgMCAxIDExLjA4MjA5LC0xMS4wODIwODkgMTEuMDgyMDg5LDExLjA4MjA4OSAwIDAgMSAxMS4wODIwOSwxMS4wODIwODkgeiBtIDAsOTIuNTM1NDQzIGEgMTEuMDgyMDg5LDExLjA4MjA4OSAwIDAgMSAtMTEuMDgyMDksMTEuMDgyMDg5IDExLjA4MjA4OSwxMS4wODIwODkgMCAwIDEgLTExLjA4MjA5LC0xMS4wODIwODkgMTEuMDgyMDg5LDExLjA4MjA4OSAwIDAgMSAxMS4wODIwOSwtMTEuMDgyMDkgMTEuMDgyMDg5LDExLjA4MjA4OSAwIDAgMSAxMS4wODIwOSwxMS4wODIwOSB6IG0gMCwzMi44ODIzMTIgYSAxMS4wODIwODksMTEuMDgyMDg5IDAgMCAxIC0xMS4wODIwOSwxMS4wODIwOSAxMS4wODIwODksMTEuMDgyMDg5IDAgMCAxIC0xMS4wODIwOSwtMTEuMDgyMDkgMTEuMDgyMDg5LDExLjA4MjA4OSAwIDAgMSAxMS4wODIwOSwtMTEuMDgyMDkzIDExLjA4MjA4OSwxMS4wODIwODkgMCAwIDEgMTEuMDgyMDksMTEuMDgyMDkzIHogbSAzMy4xMzIzMywtMTM2LjU4ODM2NyBhIDEwLjUsMTAuNSAwIDAgMCAtMTAuNSwxMC41IHYgMjguOTk0MTQxIGEgMTAuNSwxMC41IDAgMCAwIDEwLjUsMTAuNSAxMC41LDEwLjUgMCAwIDAgMTAuNSwtMTAuNSB2IC0yOC45OTQxNDEgYSAxMC41LDEwLjUgMCAwIDAgLTEwLjUsLTEwLjUgeiBtIC04ZS00LDEwLjUwMDc1OSBWIDEyLjA1OTIyOSBNIDIzMC44NjUyMyw1LjI0MDIzNDQgYSAxMC41LDEwLjUgMCAwIDAgLTEwLjUsMTAuNDk5OTk5NiB2IDI4Ljk5NDE0MSBhIDEwLjUsMTAuNSAwIDAgMCAxMC41LDEwLjUgMTAuNSwxMC41IDAgMCAwIDEwLjUsLTEwLjUgViAxNS43NDAyMzQgYSAxMC41LDEwLjUgMCAwIDAgLTEwLjUsLTEwLjQ5OTk5OTYgeiBtIDQuMmUtNCwxMC40OTk0MzA2IHYgMjguOTk0MDE3IiBzdHlsZT0iY29sb3I6IzAwMDAwMDtvcGFjaXR5OjAuOTk7ZmlsbDojNTk4NmYyO2ZpbGwtb3BhY2l0eToxO3N0cm9rZS1saW5lY2FwOnJvdW5kO3N0cm9rZS1saW5lam9pbjpyb3VuZDstaW5rc2NhcGUtc3Ryb2tlOm5vbmUiIGlkPSJwYXRoMTg0MC04Ii8+JiN4YTsgIDwvZz4mI3hhOzwvc3ZnPg==;fillColor=none;" vertex="1" parent="1">
                    <mxGeometry x="730" y="206.75" width="61.67" height="70" as="geometry"/>
                </mxCell>
                <mxCell id="44" value="Response" style="text;html=1;align=center;verticalAlign=middle;resizable=0;points=[];autosize=1;strokeColor=none;fillColor=none;" vertex="1" parent="1">
                    <mxGeometry x="600" y="245" width="80" height="30" as="geometry"/>
                </mxCell>
                <mxCell id="45" value="Iam Rest" style="text;html=1;align=center;verticalAlign=middle;resizable=0;points=[];autosize=1;strokeColor=none;fillColor=none;fontColor=#FFFFFF;" vertex="1" parent="1">
                    <mxGeometry x="165" y="485" width="70" height="30" as="geometry"/>
                </mxCell>
            </root>
        </mxGraphModel>
    </diagram>
</mxfile>